STARTFONT 2.1
COMMENT
COMMENT Converted from OpenType font "DINMittelschriftStd.otf" by "otf2bdf 3.0".
COMMENT
FONT -FreeType-DIN Mittelschrift Std-Medium-R-Normal--44-320-100-100-P-188-ISO10646-1
SIZE 32 100 100
FONTBOUNDINGBOX 51 53 -7 -11
STARTPROPERTIES 19
FOUNDRY "FreeType"
FAMILY_NAME "DIN Mittelschrift Std"
WEIGHT_NAME "Medium"
SLANT "R"
SETWIDTH_NAME "Normal"
ADD_STYLE_NAME ""
PIXEL_SIZE 44
POINT_SIZE 320
RESOLUTION_X 100
RESOLUTION_Y 100
SPACING "P"
AVERAGE_WIDTH 188
CHARSET_REGISTRY "ISO10646"
CHARSET_ENCODING "1"
FONT_ASCENT 31
FONT_DESCENT 12
COPYRIGHT "© 1990, 1992 Adobe Systems Incorporated. All rights reserved."
_OTF_FONTFILE "DINMittelschriftStd.otf"
_OTF_PSNAME "DINMittelschriftStd"
ENDPROPERTIES
CHARS 255
STARTCHAR 0020
ENCODING 32
SWIDTH 247 0
DWIDTH 11 0
BBX 0 0 0 0
BITMAP
ENDCHAR
STARTCHAR 0021
ENCODING 33
SWIDTH 247 0
DWIDTH 11 0
BBX 6 32 3 0
BITMAP
FC
F8
F8
F8
F8
F8
F8
F8
F8
78
78
78
78
78
78
70
70
70
70
70
70
70
70
30
00
00
00
F8
F8
F8
F8
F8
ENDCHAR
STARTCHAR 0022
ENCODING 34
SWIDTH 337 0
DWIDTH 15 0
BBX 9 8 3 24
BITMAP
E380
E380
E380
E380
E380
E380
E380
E380
ENDCHAR
STARTCHAR 0023
ENCODING 35
SWIDTH 472 0
DWIDTH 21 0
BBX 21 32 0 0
BITMAP
01E1C0
01C1C0
01C1C0
01C1C0
01C3C0
03C3C0
03C3C0
03C380
038380
038380
7FFFF8
7FFFF8
7FFFF8
078780
078780
078700
070700
070700
070F00
FFFFF0
FFFFF0
FFFFF0
0F0E00
0E0E00
0E0E00
0E0E00
0E1E00
1E1E00
1E1E00
1E1C00
1E1C00
1C1C00
ENDCHAR
STARTCHAR 0024
ENCODING 36
SWIDTH 472 0
DWIDTH 21 0
BBX 19 40 1 -5
BITMAP
00E000
00E000
00E000
03FC00
0FFF00
1FFFC0
3FFFC0
3FEF80
7CE300
7CE000
78E000
78E000
78E000
78E000
7CE000
7EE000
3FE000
3FF800
1FFE00
07FF80
01FF80
00FFC0
00E7C0
00E3E0
00E3E0
00E3E0
00E3E0
00E3E0
20E3E0
78E7C0
FEFFC0
FFFF80
7FFF00
1FFE00
07F800
00E000
00E000
00E000
00E000
00E000
ENDCHAR
STARTCHAR 0025
ENCODING 37
SWIDTH 517 0
DWIDTH 23 0
BBX 19 32 2 0
BITMAP
3E01C0
7F01C0
7F0380
E38380
E38700
E38700
E38E00
E38E00
E30C00
7F1C00
7E1C00
083800
003800
007000
007000
00E000
00E000
01C000
01C000
038000
038F80
071FC0
071FC0
0638E0
0E38E0
0E38E0
1C38E0
1C38E0
3838E0
381FC0
701FC0
700780
ENDCHAR
STARTCHAR 0026
ENCODING 38
SWIDTH 652 0
DWIDTH 29 0
BBX 26 32 2 0
BITMAP
01F80000
03FE0000
07FF0000
0FFF0000
0F8F8000
1F078000
1E078000
1E078000
1E078000
0F0F8000
0F9F8000
0FFF0000
07FE0000
07FC0000
0FF00000
1FF80000
3F7C0000
7C7E0400
F83F0780
F81F0780
F00F8F80
F007DF00
F003FF00
F003FE00
F001FC00
F800FC00
7C03FC00
7E0FFE00
3FFFFF00
1FFF9F80
0FFF0FC0
03F807C0
ENDCHAR
STARTCHAR 0027
ENCODING 39
SWIDTH 247 0
DWIDTH 11 0
BBX 3 8 4 24
BITMAP
E0
E0
E0
E0
E0
E0
E0
E0
ENDCHAR
STARTCHAR 0028
ENCODING 40
SWIDTH 270 0
DWIDTH 12 0
BBX 8 36 3 -4
BITMAP
03
07
06
0E
1E
1C
3C
3C
78
78
78
F8
F8
F0
F0
F0
F0
F0
F0
F0
F0
F0
F0
F8
F8
78
78
78
3C
3C
1C
1C
0E
06
07
03
ENDCHAR
STARTCHAR 0029
ENCODING 41
SWIDTH 270 0
DWIDTH 12 0
BBX 9 36 1 -4
BITMAP
C000
6000
7000
7000
3800
3800
3C00
1C00
1E00
1E00
1E00
0F00
0F00
0F00
0F00
0F00
0F80
0F80
0F80
0F80
0F80
0F00
0F00
0F00
0F00
1F00
1E00
1E00
1C00
3C00
3C00
3800
7000
7000
6000
C000
ENDCHAR
STARTCHAR 002A
ENCODING 42
SWIDTH 360 0
DWIDTH 16 0
BBX 12 13 2 19
BITMAP
0E00
0E00
0E20
EE60
FFF0
7FC0
1F80
3FC0
FFE0
FEF0
4E20
0E00
0E00
ENDCHAR
STARTCHAR 002B
ENCODING 43
SWIDTH 607 0
DWIDTH 27 0
BBX 23 23 2 0
BITMAP
003800
003800
003800
003800
003800
003800
003800
003800
003800
003800
FFFFFE
FFFFFE
FFFFFE
003800
003800
003800
003800
003800
003800
003800
003800
003800
003800
ENDCHAR
STARTCHAR 002C
ENCODING 44
SWIDTH 247 0
DWIDTH 11 0
BBX 5 8 3 -3
BITMAP
F8
F8
F8
F8
F8
F0
E0
80
ENDCHAR
STARTCHAR 002D
ENCODING 45
SWIDTH 405 0
DWIDTH 18 0
BBX 14 5 2 10
BITMAP
FFFC
FFFC
FFFC
FFFC
FFFC
ENDCHAR
STARTCHAR 002E
ENCODING 46
SWIDTH 247 0
DWIDTH 11 0
BBX 5 5 3 0
BITMAP
F8
F8
F8
F8
F8
ENDCHAR
STARTCHAR 002F
ENCODING 47
SWIDTH 337 0
DWIDTH 15 0
BBX 13 32 1 0
BITMAP
0038
0078
0078
0070
00F0
00F0
00E0
01E0
01E0
01C0
03C0
03C0
0380
0780
0780
0700
0F00
0F00
0E00
1E00
1E00
1C00
3C00
3C00
3800
7800
7800
7000
7000
F000
E000
E000
ENDCHAR
STARTCHAR 0030
ENCODING 48
SWIDTH 472 0
DWIDTH 21 0
BBX 18 32 2 0
BITMAP
07F000
1FFC00
3FFE00
7FFF00
7FFF80
FC1F80
F80F80
F00780
F007C0
F007C0
F007C0
F007C0
F007C0
F007C0
F007C0
F007C0
F007C0
F007C0
F007C0
F007C0
F007C0
F007C0
F007C0
F007C0
F007C0
F80F80
FC0F80
7FFF80
7FFF00
3FFE00
0FFC00
07F000
ENDCHAR
STARTCHAR 0031
ENCODING 49
SWIDTH 472 0
DWIDTH 21 0
BBX 9 32 4 0
BITMAP
0F80
1F80
7F80
FF80
FF80
F780
C780
8780
0780
0780
0780
0780
0780
0780
0780
0780
0780
0780
0780
0780
0780
0780
0780
0780
0780
0780
0780
0780
0780
0780
0780
0780
ENDCHAR
STARTCHAR 0032
ENCODING 50
SWIDTH 472 0
DWIDTH 21 0
BBX 18 32 1 0
BITMAP
03F000
0FFC00
1FFF00
3FFF80
3FFF80
7E0FC0
7C07C0
7803C0
F803C0
0003C0
0003C0
0007C0
0007C0
000F80
001F80
003F00
007E00
007C00
00FC00
01F800
03F000
07E000
07C000
0FC000
1F8000
3F0000
7E0000
7FFFC0
FFFFC0
FFFFC0
FFFFC0
FFFFC0
ENDCHAR
STARTCHAR 0033
ENCODING 51
SWIDTH 472 0
DWIDTH 21 0
BBX 18 32 1 0
BITMAP
03F000
0FFC00
1FFE00
3FFF00
7FFF00
FC1F80
F80F80
F807C0
F007C0
0007C0
0007C0
0007C0
000F80
001F80
01FF00
01FE00
01FE00
01FF00
001F80
000F80
0007C0
0007C0
0003C0
0003C0
F007C0
F807C0
FC0F80
7FFF80
7FFF00
3FFE00
0FFC00
03F000
ENDCHAR
STARTCHAR 0034
ENCODING 52
SWIDTH 472 0
DWIDTH 21 0
BBX 20 32 1 0
BITMAP
003E00
007C00
007C00
00FC00
00F800
00F800
01F000
01F000
03E000
03E000
07C000
07C000
0F8000
0F8000
1F0780
1F0780
1E0780
3E0780
3E0780
7C0780
7C0780
F80780
F80780
FFFFF0
FFFFF0
FFFFF0
FFFFF0
000780
000780
000780
000780
000780
ENDCHAR
STARTCHAR 0035
ENCODING 53
SWIDTH 472 0
DWIDTH 21 0
BBX 18 32 2 0
BITMAP
FFFF80
FFFF80
FFFF80
FFFF80
FFFF80
F00000
F00000
F00000
F00000
F00000
F1F000
F7FC00
FFFE00
FFFF00
FFFF80
FC0F80
F80F80
000780
0007C0
0007C0
0007C0
0007C0
0007C0
0007C0
F00780
F80F80
FC0F80
7FFF80
7FFF00
3FFE00
0FFC00
03F000
ENDCHAR
STARTCHAR 0036
ENCODING 54
SWIDTH 472 0
DWIDTH 21 0
BBX 18 32 2 0
BITMAP
007C00
007C00
00F800
00F800
01F000
01F000
03E000
03E000
07C000
07C000
0F8000
0F8000
1F0000
1FF800
3FFE00
3FFF00
7FFF80
7E1F80
F80F80
F80780
F007C0
F007C0
F007C0
F007C0
F00780
F80F80
FC1F80
7FFF00
3FFF00
3FFE00
0FFC00
03F000
ENDCHAR
STARTCHAR 0037
ENCODING 55
SWIDTH 472 0
DWIDTH 21 0
BBX 18 32 2 0
BITMAP
FFFFC0
FFFFC0
FFFFC0
FFFFC0
FFFFC0
F807C0
F80F80
F80F80
F80F80
001F00
001F00
003F00
003E00
003E00
007C00
007C00
007C00
00F800
00F800
01F000
01F000
01F000
03E000
03E000
07C000
07C000
07C000
0F8000
0F8000
1F8000
1F0000
1F0000
ENDCHAR
STARTCHAR 0038
ENCODING 56
SWIDTH 472 0
DWIDTH 21 0
BBX 19 32 1 0
BITMAP
01F800
07FE00
1FFF00
3FFF80
3FFF80
7E07C0
7C07C0
7803E0
7803E0
7803E0
7803E0
7C03C0
7C07C0
3F0FC0
3FFF80
1FFF00
1FFF00
3FFF80
7E0FC0
7C07E0
F803E0
F801E0
F801E0
F801E0
F803E0
F803E0
7E07E0
7FFFC0
3FFF80
1FFF00
0FFE00
01F800
ENDCHAR
STARTCHAR 0039
ENCODING 57
SWIDTH 472 0
DWIDTH 21 0
BBX 18 32 2 0
BITMAP
03F000
0FFC00
3FFE00
7FFF00
7FFF00
FC0F80
F80F80
F00780
F007C0
F007C0
F007C0
F007C0
F80780
F80F80
FE1F80
7FFF00
3FFF00
1FFE00
0FFE00
007C00
007C00
00F800
00F800
01F000
01F000
03E000
03E000
07C000
07C000
0F8000
0F8000
1F0000
ENDCHAR
STARTCHAR 003A
ENCODING 58
SWIDTH 247 0
DWIDTH 11 0
BBX 5 15 3 0
BITMAP
F8
F8
F8
F8
F8
00
00
00
00
00
F8
F8
F8
F8
F8
ENDCHAR
STARTCHAR 003B
ENCODING 59
SWIDTH 247 0
DWIDTH 11 0
BBX 5 18 3 -3
BITMAP
F8
F8
F8
F8
F8
00
00
00
00
00
F8
F8
F8
F8
F8
F0
E0
80
ENDCHAR
STARTCHAR 003C
ENCODING 60
SWIDTH 607 0
DWIDTH 27 0
BBX 23 23 2 0
BITMAP
000006
00001E
00007E
0001FE
000FF8
003FC0
00FF00
03FC00
1FE000
7F8000
FE0000
F00000
FC0000
7F8000
1FE000
07F800
01FF00
003FC0
000FF0
0003FE
0000FE
00001E
000006
ENDCHAR
STARTCHAR 003D
ENCODING 61
SWIDTH 607 0
DWIDTH 27 0
BBX 23 12 2 5
BITMAP
FFFFFE
FFFFFE
FFFFFE
000000
000000
000000
000000
000000
000000
FFFFFE
FFFFFE
FFFFFE
ENDCHAR
STARTCHAR 003E
ENCODING 62
SWIDTH 607 0
DWIDTH 27 0
BBX 23 23 2 0
BITMAP
800000
E00000
FC0000
FF0000
3FC000
0FF000
01FE00
007F80
001FE0
0003F8
0000FE
00003E
0000FE
0003FC
000FF0
007F80
01FE00
07F800
3FE000
FF0000
FC0000
F00000
C00000
ENDCHAR
STARTCHAR 003F
ENCODING 63
SWIDTH 472 0
DWIDTH 21 0
BBX 17 32 1 0
BITMAP
03F000
0FFC00
1FFE00
3FFF00
7FFF00
7C1F80
F80F80
F80780
F80780
000780
000F80
000F80
001F00
003F00
007E00
007C00
00F800
01F800
01F000
01E000
03E000
03E000
03E000
03E000
000000
000000
000000
03E000
03E000
03E000
03E000
03E000
ENDCHAR
STARTCHAR 0040
ENCODING 64
SWIDTH 810 0
DWIDTH 36 0
BBX 32 32 2 0
BITMAP
000FF800
007FFE00
01FFFF80
03FF3FE0
0FE003F0
1F8000F8
1F00007C
3E03E03C
7C0FF39E
783FFB9E
707E1F8E
F0780F0F
F0F00F0F
E1E00F0F
E1E00E0F
E1C00E0F
E3C00E0E
E3C00C0E
E3C01C1E
F3C01C1C
F3C03C3C
71C07878
79E1FCF0
7CFFFFE0
3C7F9F80
1E3E0E1C
1F800078
0FE001F0
07FE3FE0
01FFFFC0
007FFF00
000FF800
ENDCHAR
STARTCHAR 0041
ENCODING 65
SWIDTH 607 0
DWIDTH 27 0
BBX 27 32 0 0
BITMAP
001F0000
001F0000
001F0000
003F8000
003F8000
003FC000
007FC000
007BC000
00FBE000
00F9E000
00F1E000
01F1F000
01F1F000
01E0F000
03E0F800
03E0F800
03C07800
07C07C00
07C07C00
07803E00
0F803E00
0FFFFE00
1FFFFF00
1FFFFF00
1FFFFF00
3E000F80
3E000F80
3E000F80
7C0007C0
7C0007C0
7C0007E0
F80003E0
ENDCHAR
STARTCHAR 0042
ENCODING 66
SWIDTH 607 0
DWIDTH 27 0
BBX 22 32 3 0
BITMAP
FFFF00
FFFFC0
FFFFF0
FFFFF0
F803F8
F800F8
F800FC
F8007C
F8007C
F8007C
F8007C
F8007C
F800F8
F803F0
FFFFE0
FFFFC0
FFFFE0
FFFFF0
F801F8
F800FC
F8007C
F8007C
F8003C
F8003C
F8007C
F8007C
F800FC
FFFFF8
FFFFF8
FFFFF0
FFFFE0
FFFF80
ENDCHAR
STARTCHAR 0043
ENCODING 67
SWIDTH 562 0
DWIDTH 25 0
BBX 23 32 2 0
BITMAP
00FE00
03FF80
0FFFE0
1FFFF0
3FFFF8
3F83F8
7E00FC
7C007C
7C007C
F80000
F80000
F80000
F80000
F80000
F80000
F80000
F80000
F80000
F80000
F80000
F80000
F80000
F80000
7C007E
7C007C
7E00FC
3F83F8
3FFFF8
1FFFF0
0FFFE0
03FF80
00FE00
ENDCHAR
STARTCHAR 0044
ENCODING 68
SWIDTH 630 0
DWIDTH 28 0
BBX 23 32 3 0
BITMAP
FFFE00
FFFF80
FFFFE0
FFFFF0
FFFFF0
F801F8
F800FC
F8007C
F8007C
F8003C
F8003E
F8003E
F8003E
F8003E
F8003E
F8003E
F8003E
F8003E
F8003E
F8003E
F8003E
F8003E
F8003C
F8007C
F8007C
F800FC
F801F8
FFFFF0
FFFFF0
FFFFE0
FFFF80
FFFE00
ENDCHAR
STARTCHAR 0045
ENCODING 69
SWIDTH 562 0
DWIDTH 25 0
BBX 21 32 3 0
BITMAP
FFFFF8
FFFFF8
FFFFF8
FFFFF8
FFFFF8
F80000
F80000
F80000
F80000
F80000
F80000
F80000
F80000
F80000
FFFFC0
FFFFC0
FFFFC0
FFFFC0
F80000
F80000
F80000
F80000
F80000
F80000
F80000
F80000
F80000
FFFFF8
FFFFF8
FFFFF8
FFFFF8
FFFFF8
ENDCHAR
STARTCHAR 0046
ENCODING 70
SWIDTH 540 0
DWIDTH 24 0
BBX 21 32 3 0
BITMAP
FFFFF8
FFFFF8
FFFFF8
FFFFF8
FFFFF8
F80000
F80000
F80000
F80000
F80000
F80000
F80000
F80000
F80000
FFFFC0
FFFFC0
FFFFC0
FFFFC0
F80000
F80000
F80000
F80000
F80000
F80000
F80000
F80000
F80000
F80000
F80000
F80000
F80000
F80000
ENDCHAR
STARTCHAR 0047
ENCODING 71
SWIDTH 607 0
DWIDTH 27 0
BBX 23 32 2 0
BITMAP
00FE00
03FF80
0FFFE0
1FFFF0
3FFFF8
3F83F8
7E00FC
7C007C
7C007C
F80000
F80000
F80000
F80000
F80000
F80FFE
F80FFE
F80FFE
F80FFE
F80FFE
F8003E
F8003E
F8003E
F8003E
7C007E
7C007C
7E00FC
3F83F8
3FFFF8
1FFFF0
0FFFE0
03FF80
00FE00
ENDCHAR
STARTCHAR 0048
ENCODING 72
SWIDTH 652 0
DWIDTH 29 0
BBX 22 32 3 0
BITMAP
F8003C
F8003C
F8003C
F8003C
F8003C
F8003C
F8003C
F8003C
F8003C
F8003C
F8003C
F8003C
F8003C
F8003C
FFFFFC
FFFFFC
FFFFFC
FFFFFC
F8003C
F8003C
F8003C
F8003C
F8003C
F8003C
F8003C
F8003C
F8003C
F8003C
F8003C
F8003C
F8003C
F8003C
ENDCHAR
STARTCHAR 0049
ENCODING 73
SWIDTH 247 0
DWIDTH 11 0
BBX 5 32 3 0
BITMAP
F8
F8
F8
F8
F8
F8
F8
F8
F8
F8
F8
F8
F8
F8
F8
F8
F8
F8
F8
F8
F8
F8
F8
F8
F8
F8
F8
F8
F8
F8
F8
F8
ENDCHAR
STARTCHAR 004A
ENCODING 74
SWIDTH 472 0
DWIDTH 21 0
BBX 17 32 1 0
BITMAP
000780
000780
000780
000780
000780
000780
000780
000780
000780
000780
000780
000780
000780
000780
000780
000780
000780
000780
000780
000780
000780
000780
000F80
000F80
000F80
201F80
703F00
FFFF00
FFFE00
FFFC00
3FF800
0FE000
ENDCHAR
STARTCHAR 004B
ENCODING 75
SWIDTH 630 0
DWIDTH 28 0
BBX 25 32 3 0
BITMAP
F8003F00
F8007E00
F800FC00
F801F800
F801F000
F803F000
F807E000
F80FC000
F80F8000
F81F0000
F83F0000
F87E0000
F8FC0000
F8FC0000
F9FE0000
FBFE0000
FFFF0000
FFDF8000
FF8F8000
FF0FC000
FE07C000
FC07E000
F803F000
F801F000
F801F800
F800F800
F800FC00
F8007C00
F8007E00
F8003F00
F8003F00
F8001F80
ENDCHAR
STARTCHAR 004C
ENCODING 76
SWIDTH 562 0
DWIDTH 25 0
BBX 21 32 3 0
BITMAP
F80000
F80000
F80000
F80000
F80000
F80000
F80000
F80000
F80000
F80000
F80000
F80000
F80000
F80000
F80000
F80000
F80000
F80000
F80000
F80000
F80000
F80000
F80000
F80000
F80000
F80000
F80000
FFFFF8
FFFFF8
FFFFF8
FFFFF8
FFFFF8
ENDCHAR
STARTCHAR 004D
ENCODING 77
SWIDTH 765 0
DWIDTH 34 0
BBX 27 32 3 0
BITMAP
F80001E0
FC0003E0
FC0003E0
FC0007E0
FE0007E0
FE000FE0
FF000FE0
FF000FE0
FF801FE0
FF801FE0
FF803FE0
FFC03FE0
FFC07DE0
FBE07DE0
FBE079E0
F9F0F9E0
F9F0F9E0
F8F1F1E0
F8F9F1E0
F8FBE1E0
F87FE1E0
F87FC1E0
F83FC1E0
F83FC1E0
F81F81E0
F81F81E0
F81F01E0
F80001E0
F80001E0
F80001E0
F80001E0
F80001E0
ENDCHAR
STARTCHAR 004E
ENCODING 78
SWIDTH 675 0
DWIDTH 30 0
BBX 24 32 3 0
BITMAP
F8001F
FC001F
FC001F
FE001F
FF001F
FF001F
FF801F
FFC01F
FFC01F
FFE01F
FBE01F
F9F01F
F9F81F
F8F81F
F8FC1F
F87E1F
F83E1F
F83F1F
F81F9F
F80F9F
F80FDF
F807DF
F803FF
F803FF
F801FF
F801FF
F800FF
F8007F
F8007F
F8003F
F8001F
F8001F
ENDCHAR
STARTCHAR 004F
ENCODING 79
SWIDTH 607 0
DWIDTH 27 0
BBX 23 32 2 0
BITMAP
00FE00
03FF80
0FFFE0
1FFFF0
3FFFF8
3F83F8
7E00FC
7C007C
7C007C
F8003E
F8003E
F8003E
F8003E
F8003E
F8003E
F8003E
F8003E
F8003E
F8003E
F8003E
F8003E
F8003E
F8003E
7C007C
7C007C
7E00FC
3F83F8
3FFFF8
1FFFF0
0FFFE0
03FF80
00FE00
ENDCHAR
STARTCHAR 0050
ENCODING 80
SWIDTH 585 0
DWIDTH 26 0
BBX 22 32 3 0
BITMAP
FFFF00
FFFFC0
FFFFE0
FFFFF0
FFFFF8
F800F8
F8007C
F8007C
F8007C
F8003C
F8007C
F8007C
F8007C
F800FC
F801F8
FFFFF8
FFFFF0
FFFFE0
FFFF80
FFFC00
F80000
F80000
F80000
F80000
F80000
F80000
F80000
F80000
F80000
F80000
F80000
F80000
ENDCHAR
STARTCHAR 0051
ENCODING 81
SWIDTH 607 0
DWIDTH 27 0
BBX 26 32 2 0
BITMAP
00FE0000
03FF8000
0FFFE000
1FFFF000
3FFFF800
3F83F800
7E00FC00
7C007C00
7C007C00
F8003E00
F8003E00
F8003E00
F8003E00
F8003E00
F8003E00
F8003E00
F8003E00
F8003E00
F8003E00
F8003E00
F8063E00
F80F3E00
F81FFE00
7C0FFC00
7C07FC00
7E03FC00
3F83FE00
3FFFFF00
1FFFFF80
0FFFFFC0
03FF8780
00FE0300
ENDCHAR
STARTCHAR 0052
ENCODING 82
SWIDTH 607 0
DWIDTH 27 0
BBX 23 32 3 0
BITMAP
FFFF00
FFFFC0
FFFFF0
FFFFF0
F801F8
F800FC
F8007C
F8003C
F8003C
F8003C
F8007C
F8007C
F800FC
F801F8
FFFFF8
FFFFF0
FFFFE0
FFFF80
F81F80
F80F80
F80FC0
F807C0
F807E0
F803E0
F803F0
F801F0
F801F8
F800F8
F800FC
F8007C
F8007E
F8003E
ENDCHAR
STARTCHAR 0053
ENCODING 83
SWIDTH 585 0
DWIDTH 26 0
BBX 23 32 1 0
BITMAP
00FE00
07FFC0
0FFFF0
1FFFFC
3FFFF8
3F00F0
3E0030
7C0000
7C0000
7C0000
7C0000
7E0000
3F0000
3FF000
1FFF80
0FFFE0
07FFF0
01FFF8
0007FC
0000FC
00007C
00003E
00003E
00003E
20003E
78007C
7E01FC
FFFFFC
7FFFF8
3FFFF0
0FFFC0
01FF00
ENDCHAR
STARTCHAR 0054
ENCODING 84
SWIDTH 495 0
DWIDTH 22 0
BBX 22 32 0 0
BITMAP
FFFFFC
FFFFFC
FFFFFC
FFFFFC
007C00
007C00
007C00
007C00
007C00
007C00
007C00
007C00
007C00
007C00
007C00
007C00
007C00
007C00
007C00
007C00
007C00
007C00
007C00
007C00
007C00
007C00
007C00
007C00
007C00
007C00
007C00
007C00
ENDCHAR
STARTCHAR 0055
ENCODING 85
SWIDTH 630 0
DWIDTH 28 0
BBX 22 32 3 0
BITMAP
F8007C
F8007C
F8007C
F8007C
F8007C
F8007C
F8007C
F8007C
F8007C
F8007C
F8007C
F8007C
F8007C
F8007C
F8007C
F8007C
F8007C
F8007C
F8007C
F8007C
F8007C
F8007C
F8007C
F8007C
FC00FC
7C00F8
7F03F8
3FFFF0
3FFFE0
0FFFC0
07FF80
01FE00
ENDCHAR
STARTCHAR 0056
ENCODING 86
SWIDTH 562 0
DWIDTH 25 0
BBX 24 32 0 0
BITMAP
F8001F
7C001F
7C001F
7C001F
7C003E
3E003E
3E003E
3E007C
1F007C
1F007C
1F00F8
0F80F8
0F80F8
0F80F0
0781F0
07C1F0
07C1E0
03C3E0
03E3E0
03E3C0
01E3C0
01E7C0
01F780
00F780
00FF80
00FF00
007F00
007F00
007E00
003E00
003E00
003C00
ENDCHAR
STARTCHAR 0057
ENCODING 87
SWIDTH 832 0
DWIDTH 37 0
BBX 35 32 1 0
BITMAP
F800E003E0
F801F003E0
F801F003E0
F801F003E0
7C01F007C0
7C03F807C0
7C03F807C0
7C03F807C0
3C07FC0780
3E07BC0F80
3E07BC0F80
3E07BC0F80
1E0FBE0F00
1F0F1E1F00
1F0F1E1F00
1F0F1E1F00
0F1E1F1E00
0F1E0F1E00
0F9E0F3E00
0FBE0F3E00
07BC07BC00
07BC07BC00
07BC07FC00
07FC07FC00
03F803F800
03F803F800
03F803F800
03F803F800
01F001F000
01F001F000
01F001F000
01F001F000
ENDCHAR
STARTCHAR 0058
ENCODING 88
SWIDTH 540 0
DWIDTH 24 0
BBX 24 32 0 0
BITMAP
FC003E
7C007E
3E007C
3F00FC
1F00F8
1F81F0
0F81F0
07C3E0
07C7E0
03E7C0
03FFC0
01FF80
01FF00
00FF00
007E00
007E00
007E00
00FF00
00FF00
01FF80
03FF80
03E7C0
07E7E0
07C3E0
0F83F0
1F81F0
1F00F8
3F00FC
3E007C
7C007E
FC003E
F8001F
ENDCHAR
STARTCHAR 0059
ENCODING 89
SWIDTH 495 0
DWIDTH 22 0
BBX 23 32 0 0
BITMAP
F8003E
F8007C
7C007C
7C00F8
3E00F8
3E01F0
1E01F0
1F03E0
0F03E0
0F87C0
0787C0
07CF80
03CF80
03FF00
01FF00
01FE00
00FE00
00FC00
007C00
007800
007800
007800
007800
007800
007800
007800
007800
007800
007800
007800
007800
007800
ENDCHAR
STARTCHAR 005A
ENCODING 90
SWIDTH 517 0
DWIDTH 23 0
BBX 21 32 1 0
BITMAP
7FFFF8
7FFFF8
7FFFF8
7FFFF8
0001F0
0003E0
0007E0
0007C0
000FC0
000F80
001F00
003F00
003E00
007E00
007C00
00F800
01F800
01F000
03F000
03E000
07C000
0FC000
0F8000
1F8000
1F0000
3E0000
7E0000
7FFFF8
FFFFF8
FFFFF8
FFFFF8
FFFFF8
ENDCHAR
STARTCHAR 005B
ENCODING 91
SWIDTH 270 0
DWIDTH 12 0
BBX 8 37 3 -5
BITMAP
FF
FF
FF
F0
F0
F0
F0
F0
F0
F0
F0
F0
F0
F0
F0
F0
F0
F0
F0
F0
F0
F0
F0
F0
F0
F0
F0
F0
F0
F0
F0
F0
F0
F0
FF
FF
FF
ENDCHAR
STARTCHAR 005C
ENCODING 92
SWIDTH 337 0
DWIDTH 15 0
BBX 14 32 0 0
BITMAP
F000
7000
7800
7800
3800
3C00
3C00
1C00
1E00
1E00
0E00
0F00
0F00
0700
0780
0780
0380
03C0
03C0
01C0
01E0
01E0
00E0
00F0
00F0
0070
0078
0078
0038
003C
003C
001C
ENDCHAR
STARTCHAR 005D
ENCODING 93
SWIDTH 270 0
DWIDTH 12 0
BBX 8 37 1 -5
BITMAP
FF
FF
FF
0F
0F
0F
0F
0F
0F
0F
0F
0F
0F
0F
0F
0F
0F
0F
0F
0F
0F
0F
0F
0F
0F
0F
0F
0F
0F
0F
0F
0F
0F
0F
FF
FF
FF
ENDCHAR
STARTCHAR 005E
ENCODING 94
SWIDTH 607 0
DWIDTH 27 0
BBX 22 20 2 12
BITMAP
003800
007C00
007C00
00FC00
00EE00
01EE00
01C700
03C700
038780
078380
0703C0
0F01C0
0E01E0
1E00E0
1C00F0
3C0070
3C0078
780038
78003C
F0003C
ENDCHAR
STARTCHAR 005F
ENCODING 95
SWIDTH 495 0
DWIDTH 22 0
BBX 22 2 0 -5
BITMAP
FFFFFC
FFFFFC
ENDCHAR
STARTCHAR 0060
ENCODING 96
SWIDTH 247 0
DWIDTH 11 0
BBX 10 7 -1 25
BITMAP
FC00
7E00
3E00
1F00
0F80
0780
03C0
ENDCHAR
STARTCHAR 0061
ENCODING 97
SWIDTH 495 0
DWIDTH 22 0
BBX 18 23 1 0
BITMAP
07F800
1FFF00
3FFF80
3FFF80
1E1FC0
0807C0
0003C0
0003C0
0003C0
07FFC0
1FFFC0
3FFFC0
7FFFC0
7C03C0
F803C0
F003C0
F803C0
F807C0
FE0FC0
7FFFC0
3FFFC0
1FFBC0
07F3C0
ENDCHAR
STARTCHAR 0062
ENCODING 98
SWIDTH 517 0
DWIDTH 23 0
BBX 18 32 3 0
BITMAP
F00000
F00000
F00000
F00000
F00000
F00000
F00000
F00000
F00000
F0F800
F3FE00
F7FF00
FFFF80
FFFF80
FC0FC0
F807C0
F807C0
F807C0
F807C0
F007C0
F007C0
F007C0
F007C0
F807C0
F807C0
F807C0
FC0FC0
FFFF80
FFFF80
F7FF00
F3FE00
F1F800
ENDCHAR
STARTCHAR 0063
ENCODING 99
SWIDTH 450 0
DWIDTH 20 0
BBX 18 23 1 0
BITMAP
01FC00
07FF00
0FFF80
1FFFC0
3FFFC0
7E0380
7C0100
780000
F80000
F80000
F80000
F80000
F80000
F80000
F80000
780000
7C0100
7E0380
3FFFC0
1FFFC0
1FFF80
07FF00
01FC00
ENDCHAR
STARTCHAR 0064
ENCODING 100
SWIDTH 517 0
DWIDTH 23 0
BBX 18 32 3 0
BITMAP
0007C0
0007C0
0007C0
0007C0
0007C0
0007C0
0007C0
0007C0
0007C0
07C7C0
1FF7C0
3FFFC0
7FFFC0
7FFFC0
FC0FC0
F807C0
F807C0
F807C0
F807C0
F007C0
F007C0
F007C0
F007C0
F807C0
F807C0
F807C0
FC0FC0
7FFFC0
7FFFC0
3FFFC0
1FF7C0
07C7C0
ENDCHAR
STARTCHAR 0065
ENCODING 101
SWIDTH 495 0
DWIDTH 22 0
BBX 18 23 2 0
BITMAP
03F000
0FFC00
1FFF00
3FFF00
7F1F80
7C0FC0
F807C0
F803C0
F003C0
FFFFC0
FFFFC0
FFFFC0
FFFFC0
F00000
F00000
F80000
F80000
7C0700
7F1F80
3FFFC0
1FFF80
0FFE00
03F800
ENDCHAR
STARTCHAR 0066
ENCODING 102
SWIDTH 270 0
DWIDTH 12 0
BBX 12 32 1 0
BITMAP
03F0
0FF0
0FF0
1FF0
1F00
1E00
1E00
1E00
1E00
FFF0
FFF0
FFF0
1E00
1E00
1E00
1E00
1E00
1E00
1E00
1E00
1E00
1E00
1E00
1E00
1E00
1E00
1E00
1E00
1E00
1E00
1E00
1E00
ENDCHAR
STARTCHAR 0067
ENCODING 103
SWIDTH 517 0
DWIDTH 23 0
BBX 18 32 2 -9
BITMAP
07E3C0
1FF3C0
3FFBC0
7FFFC0
7FFFC0
FC0FC0
F807C0
F807C0
F807C0
F803C0
F803C0
F803C0
F803C0
F803C0
F807C0
F807C0
F807C0
FC0FC0
7FFFC0
7FFFC0
3FFBC0
1FF3C0
07C3C0
0003C0
0007C0
0007C0
180F80
7FFF80
7FFF00
3FFE00
1FFC00
07F000
ENDCHAR
STARTCHAR 0068
ENCODING 104
SWIDTH 540 0
DWIDTH 24 0
BBX 18 32 3 0
BITMAP
F00000
F00000
F00000
F00000
F00000
F00000
F00000
F00000
F00000
F1F800
F3FE00
F7FF00
FFFF80
FFFF80
FC0FC0
F807C0
F807C0
F807C0
F007C0
F007C0
F007C0
F007C0
F007C0
F007C0
F007C0
F007C0
F007C0
F007C0
F007C0
F007C0
F007C0
F007C0
ENDCHAR
STARTCHAR 0069
ENCODING 105
SWIDTH 247 0
DWIDTH 11 0
BBX 5 32 3 0
BITMAP
F8
F8
F8
F8
F8
00
00
00
00
F8
F8
F8
F8
F8
F8
F8
F8
F8
F8
F8
F8
F8
F8
F8
F8
F8
F8
F8
F8
F8
F8
F8
ENDCHAR
STARTCHAR 006A
ENCODING 106
SWIDTH 247 0
DWIDTH 11 0
BBX 8 41 0 -9
BITMAP
1F
1F
1F
1F
1F
00
00
00
00
1F
1F
1F
1F
1F
1F
1F
1F
1F
1F
1F
1F
1F
1F
1F
1F
1F
1F
1F
1F
1F
1F
1F
1F
1F
1F
1F
3F
FE
FE
FC
F0
ENDCHAR
STARTCHAR 006B
ENCODING 107
SWIDTH 517 0
DWIDTH 23 0
BBX 19 32 3 0
BITMAP
F00000
F00000
F00000
F00000
F00000
F00000
F00000
F00000
F00000
F007C0
F00F80
F01F00
F03F00
F03E00
F07C00
F0F800
F1F000
F3E000
F3E000
F7F000
FFF000
FFF800
FE7C00
FC7C00
F83E00
F03F00
F01F00
F01F80
F00FC0
F007C0
F007E0
F003E0
ENDCHAR
STARTCHAR 006C
ENCODING 108
SWIDTH 247 0
DWIDTH 11 0
BBX 8 32 3 0
BITMAP
F0
F0
F0
F0
F0
F0
F0
F0
F0
F0
F0
F0
F0
F0
F0
F0
F0
F0
F0
F0
F0
F0
F0
F0
F0
F0
F0
F8
FF
FF
7F
1F
ENDCHAR
STARTCHAR 006D
ENCODING 109
SWIDTH 855 0
DWIDTH 38 0
BBX 32 23 3 0
BITMAP
F8FC07E0
FBFE1FF8
FFFFFFFC
FFFFFFFC
FFFFFFFE
FC0FF07E
FC07E03F
F807C01F
F803C01F
F803C01F
F803C01F
F803C01F
F803C01F
F803C01F
F803C01F
F803C01F
F803C01F
F803C01F
F803C01F
F803C01F
F803C01F
F803C01F
F803C01F
ENDCHAR
STARTCHAR 006E
ENCODING 110
SWIDTH 540 0
DWIDTH 24 0
BBX 18 23 3 0
BITMAP
F1F800
F3FE00
F7FF00
FFFF80
FFFF80
FC0FC0
F807C0
F807C0
F807C0
F007C0
F007C0
F007C0
F007C0
F007C0
F007C0
F007C0
F007C0
F007C0
F007C0
F007C0
F007C0
F007C0
F007C0
ENDCHAR
STARTCHAR 006F
ENCODING 111
SWIDTH 495 0
DWIDTH 22 0
BBX 18 23 2 0
BITMAP
03F000
0FFC00
1FFF00
3FFF00
7FFF80
7C0FC0
F807C0
F807C0
F003C0
F003C0
F003C0
F003C0
F003C0
F003C0
F003C0
F807C0
F807C0
7C0FC0
7FFF80
3FFF00
1FFF00
0FFC00
03F000
ENDCHAR
STARTCHAR 0070
ENCODING 112
SWIDTH 517 0
DWIDTH 23 0
BBX 18 32 3 -9
BITMAP
F0F800
F3FE00
F7FF00
FFFF80
FFFF80
FC0FC0
F807C0
F807C0
F807C0
F807C0
F007C0
F007C0
F007C0
F007C0
F807C0
F807C0
F807C0
FC0FC0
FFFF80
FFFF80
F7FF00
F3FE00
F0F800
F00000
F00000
F00000
F00000
F00000
F00000
F00000
F00000
F00000
ENDCHAR
STARTCHAR 0071
ENCODING 113
SWIDTH 517 0
DWIDTH 23 0
BBX 18 32 2 -9
BITMAP
07C3C0
1FF3C0
3FFBC0
7FFFC0
7FFFC0
FC0FC0
F807C0
F807C0
F807C0
F803C0
F803C0
F803C0
F803C0
F803C0
F807C0
F807C0
F807C0
FC0FC0
7FFFC0
7FFFC0
3FFBC0
1FF3C0
07C3C0
0003C0
0003C0
0003C0
0003C0
0003C0
0003C0
0003C0
0003C0
0003C0
ENDCHAR
STARTCHAR 0072
ENCODING 114
SWIDTH 382 0
DWIDTH 17 0
BBX 15 23 3 0
BITMAP
F1F8
F3FE
F7FC
FFFC
FFF8
FC00
F800
F800
F000
F000
F000
F000
F000
F000
F000
F000
F000
F000
F000
F000
F000
F000
F000
ENDCHAR
STARTCHAR 0073
ENCODING 115
SWIDTH 472 0
DWIDTH 21 0
BBX 19 23 1 0
BITMAP
03F800
0FFF00
3FFF80
3FFFC0
7E0F80
7C0300
780000
7C0000
7E0000
7FFC00
3FFF00
1FFF80
07FFC0
000FC0
0003E0
0003E0
2003E0
7807E0
FE0FC0
FFFFC0
7FFF80
1FFF00
07F800
ENDCHAR
STARTCHAR 0074
ENCODING 116
SWIDTH 270 0
DWIDTH 12 0
BBX 10 30 1 0
BITMAP
3E00
3E00
3E00
3E00
3E00
3E00
3E00
FFC0
FFC0
FFC0
3E00
3E00
3E00
3E00
3E00
3E00
3E00
3E00
3E00
3E00
3E00
3E00
3E00
3E00
3E00
3E00
3FC0
1FC0
0FC0
07C0
ENDCHAR
STARTCHAR 0075
ENCODING 117
SWIDTH 540 0
DWIDTH 24 0
BBX 18 23 3 0
BITMAP
F007C0
F007C0
F007C0
F007C0
F007C0
F007C0
F007C0
F007C0
F007C0
F007C0
F007C0
F007C0
F007C0
F007C0
F007C0
F807C0
F807C0
FC0FC0
7FFFC0
7FFFC0
3FFFC0
1FF7C0
07C7C0
ENDCHAR
STARTCHAR 0076
ENCODING 118
SWIDTH 450 0
DWIDTH 20 0
BBX 20 23 0 0
BITMAP
F801F0
F801E0
7803E0
7C03E0
7C03C0
3C07C0
3E07C0
3E0780
1E0F80
1F0F80
1F0F00
0F1F00
0F9E00
079E00
07BE00
07FC00
03FC00
03FC00
03F800
01F800
01F800
01F000
00F000
ENDCHAR
STARTCHAR 0077
ENCODING 119
SWIDTH 720 0
DWIDTH 32 0
BBX 32 23 0 0
BITMAP
F803C01F
7803C01F
7C03C01E
7C07E03E
7C07E03E
3C07E03C
3E0FF07C
3E0FF07C
1E0F7078
1E1E7878
1F1E78F8
0F1E78F0
0F3C3CF0
0F3C3CF0
07BC3DE0
07B81FE0
07F81FE0
03F81FE0
03F81FC0
03F00FC0
03F00FC0
01F00F80
01E00780
ENDCHAR
STARTCHAR 0078
ENCODING 120
SWIDTH 472 0
DWIDTH 21 0
BBX 20 23 1 0
BITMAP
F803E0
7C07E0
7E07C0
3E0F80
1F1F80
1F1F00
0FBE00
07FE00
07FC00
03F800
01F800
01F000
03F800
03FC00
07FC00
0FFE00
0FBF00
1F1F00
3F0F80
3E0FC0
7C07C0
FC07E0
F803F0
ENDCHAR
STARTCHAR 0079
ENCODING 121
SWIDTH 450 0
DWIDTH 20 0
BBX 20 32 0 -9
BITMAP
F801F0
F801F0
7803E0
7C03E0
7C03C0
3C07C0
3E07C0
3E0780
1E0F80
1F0F80
0F0F00
0F1F00
0F9F00
079E00
07BE00
07FE00
03FC00
03FC00
03FC00
01F800
01F800
00F000
00F000
01F000
01E000
01E000
03E000
07C000
3FC000
3F8000
3F8000
3E0000
ENDCHAR
STARTCHAR 007A
ENCODING 122
SWIDTH 450 0
DWIDTH 20 0
BBX 17 23 1 0
BITMAP
7FFF80
7FFF80
7FFF80
7FFF80
001F80
001F00
003E00
007C00
00FC00
00F800
01F000
03E000
03E000
07C000
0F8000
1F0000
1F0000
3E0000
7C0000
FFFF80
FFFF80
FFFF80
FFFF80
ENDCHAR
STARTCHAR 007B
ENCODING 123
SWIDTH 270 0
DWIDTH 12 0
BBX 11 37 1 -5
BITMAP
07E0
0FE0
0FE0
1F00
1E00
1E00
1E00
1E00
1E00
1E00
1E00
1E00
1E00
1E00
1E00
3E00
7C00
F800
F000
F800
7C00
3E00
1E00
1E00
1E00
1E00
1E00
1E00
1E00
1E00
1E00
1E00
1E00
1F00
0FE0
0FE0
07E0
ENDCHAR
STARTCHAR 007C
ENCODING 124
SWIDTH 225 0
DWIDTH 10 0
BBX 4 44 3 -11
BITMAP
F0
F0
F0
F0
F0
F0
F0
F0
F0
F0
F0
F0
F0
F0
F0
F0
F0
F0
F0
F0
F0
F0
F0
F0
F0
F0
F0
F0
F0
F0
F0
F0
F0
F0
F0
F0
F0
F0
F0
F0
F0
F0
F0
F0
ENDCHAR
STARTCHAR 007D
ENCODING 125
SWIDTH 270 0
DWIDTH 12 0
BBX 12 37 0 -5
BITMAP
FC00
FE00
FF00
1F00
0F00
0F00
0F00
0F00
0F00
0F00
0F00
0F00
0F00
0F00
0F80
0780
07C0
03F0
00F0
03F0
07C0
0780
0F80
0F00
0F00
0F00
0F00
0F00
0F00
0F00
0F00
0F00
0F00
1F00
FF00
FE00
FC00
ENDCHAR
STARTCHAR 007E
ENCODING 126
SWIDTH 607 0
DWIDTH 27 0
BBX 20 6 3 9
BITMAP
3F8030
7FF070
7FFFF0
F1FFF0
603FE0
400F80
ENDCHAR
STARTCHAR 00A0
ENCODING 160
SWIDTH 247 0
DWIDTH 11 0
BBX 0 0 0 0
BITMAP
ENDCHAR
STARTCHAR 00A1
ENCODING 161
SWIDTH 247 0
DWIDTH 11 0
BBX 6 32 3 -9
BITMAP
F8
F8
F8
F8
F8
00
00
00
30
70
70
70
70
70
70
70
70
78
78
78
78
78
78
F8
F8
F8
F8
F8
F8
F8
F8
FC
ENDCHAR
STARTCHAR 00A2
ENCODING 162
SWIDTH 472 0
DWIDTH 21 0
BBX 18 31 1 -4
BITMAP
003000
003000
003000
003000
01FC00
07FF00
0FFF80
1FFFC0
3FFFC0
3E3380
7C3100
7C3000
783000
783000
F83000
F83000
783000
783000
783000
7C3000
7C3100
3E3380
3FFFC0
1FFFC0
0FFF80
07FF00
01FC00
003000
003000
003000
003000
ENDCHAR
STARTCHAR 00A3
ENCODING 163
SWIDTH 472 0
DWIDTH 21 0
BBX 20 32 1 0
BITMAP
03F800
07FE00
1FFF00
1FFF80
3F1F80
3E07C0
7C07C0
7C07C0
7C03C0
7C0000
7C0000
7C0000
3C0000
3C0000
3E0000
3E0000
FFFC00
FFFC00
FFFC00
0F8000
0F8000
078000
078000
078000
078000
0F8000
0F0000
7FC1C0
7FFFE0
7FFFF0
7FFFE0
407F80
ENDCHAR
STARTCHAR 00A4
ENCODING 164
SWIDTH 472 0
DWIDTH 21 0
BBX 19 19 1 7
BITMAP
63F8C0
FFFFE0
FFFFE0
7E0FC0
7C03C0
7801C0
7001E0
F000E0
F000E0
F000E0
F000E0
F001E0
7001E0
7801C0
3C03C0
7E0FC0
FFFFE0
F7FFE0
61F8C0
ENDCHAR
STARTCHAR 00A5
ENCODING 165
SWIDTH 472 0
DWIDTH 21 0
BBX 22 32 0 0
BITMAP
F0007C
F800F8
7800F8
7C00F0
7C01F0
3E01E0
3E03E0
1F03C0
1F07C0
0F0780
0F8F80
078F00
07CF00
03DF00
03FE00
3FFFE0
3FFFE0
3FFFE0
00F800
007800
007800
007800
3FFFE0
3FFFE0
3FFFE0
007800
007800
007800
007800
007800
007800
007800
ENDCHAR
STARTCHAR 00A6
ENCODING 166
SWIDTH 225 0
DWIDTH 10 0
BBX 4 38 3 -8
BITMAP
F0
F0
F0
F0
F0
F0
F0
F0
F0
F0
F0
F0
F0
F0
F0
F0
00
00
00
00
00
00
F0
F0
F0
F0
F0
F0
F0
F0
F0
F0
F0
F0
F0
F0
F0
F0
ENDCHAR
STARTCHAR 00A7
ENCODING 167
SWIDTH 472 0
DWIDTH 21 0
BBX 17 40 2 -8
BITMAP
03F000
0FF800
1FFC00
3FFE00
3E3F00
3C0F00
780F00
7C0F00
3C0000
3E0000
3FC000
1FF800
0FFE00
3FFF00
7FFF00
7C1F80
F80F80
F80780
F80780
F80780
F80780
F80780
F80F80
FC1F80
7F7F00
3FFE00
1FF800
07FE00
00FE00
003F00
000F00
000F00
780F80
780F00
7C0F00
3E1F00
3FFE00
1FFE00
0FFC00
07F000
ENDCHAR
STARTCHAR 00A8
ENCODING 168
SWIDTH 247 0
DWIDTH 11 0
BBX 13 5 -1 26
BITMAP
F8F8
F8F8
F8F8
F8F8
F8F8
ENDCHAR
STARTCHAR 00A9
ENCODING 169
SWIDTH 810 0
DWIDTH 36 0
BBX 32 32 2 0
BITMAP
000FF000
007FFC00
01FFFF00
03F83FC0
07C003E0
0F0001F0
1E0FF0F8
3C3FFC78
387FFE3C
78FC1E1C
70F00F1E
F1E0070E
F1E0070E
E1C0000F
E1C0000F
E1C0000F
E1C0000F
E1C0000F
E1C0000F
F1E0070E
F1E0070E
70F00F1E
787C1E1C
387FFC3C
3C3FF878
1E0FF0F8
0F0001F0
07C003E0
03F81FC0
01FFFF00
007FFE00
000FF000
ENDCHAR
STARTCHAR 00AA
ENCODING 170
SWIDTH 315 0
DWIDTH 14 0
BBX 13 14 0 18
BITMAP
1FE0
3FF0
3FF8
1078
0038
1FF8
3FF8
7FF8
F038
F038
F078
7FF8
7FF8
1FB8
ENDCHAR
STARTCHAR 00AB
ENCODING 171
SWIDTH 472 0
DWIDTH 21 0
BBX 16 17 3 3
BITMAP
0101
0101
0303
0707
0F0F
1E1E
3C3C
7878
F0F0
F0F0
7878
3C3C
1E1E
0F0F
0707
0303
0101
ENDCHAR
STARTCHAR 00AC
ENCODING 172
SWIDTH 607 0
DWIDTH 27 0
BBX 23 12 2 5
BITMAP
FFFFFE
FFFFFE
FFFFFE
00001E
00001E
00001E
00001E
00001E
00001E
00001E
00001E
00001E
ENDCHAR
STARTCHAR 00AD
ENCODING 173
SWIDTH 405 0
DWIDTH 18 0
BBX 14 5 2 10
BITMAP
FFFC
FFFC
FFFC
FFFC
FFFC
ENDCHAR
STARTCHAR 00AE
ENCODING 174
SWIDTH 810 0
DWIDTH 36 0
BBX 32 32 2 0
BITMAP
000FF000
007FFE00
01FFFF00
03F83FC0
0FC003E0
1F0001F0
1E3FF078
3C3FFC38
783FFC3C
78381E1E
70380E1E
F0380E0E
F0380E0F
E0381E0F
E03FFE0F
E03FFC0F
E03FF00F
E039E00F
E038F00F
F038F00E
F038780E
70383C1E
78383C1C
38381E3C
3C380F78
1E0000F8
0F0001F0
07C007E0
03F81FC0
01FFFF00
007FFE00
000FF000
ENDCHAR
STARTCHAR 00AF
ENCODING 175
SWIDTH 247 0
DWIDTH 11 0
BBX 13 3 -1 27
BITMAP
FFF8
FFF8
FFF8
ENDCHAR
STARTCHAR 00B0
ENCODING 176
SWIDTH 405 0
DWIDTH 18 0
BBX 12 13 3 19
BITMAP
1F00
3FC0
79E0
E060
C070
C030
C030
C030
C070
E070
71E0
3FC0
1F00
ENDCHAR
STARTCHAR 00B1
ENCODING 177
SWIDTH 607 0
DWIDTH 27 0
BBX 23 23 2 0
BITMAP
003800
003800
003800
003800
003800
003800
003800
003800
FFFFFE
FFFFFE
FFFFFE
003800
003800
003800
003800
003800
003800
000000
000000
000000
FFFFFE
FFFFFE
FFFFFE
ENDCHAR
STARTCHAR 00B2
ENCODING 178
SWIDTH 315 0
DWIDTH 14 0
BBX 12 20 1 12
BITMAP
1F80
3FC0
7FE0
F9F0
F0F0
F0F0
00F0
00F0
01E0
03E0
07C0
0F80
1F00
1E00
3C00
7800
F000
FFF0
FFF0
FFF0
ENDCHAR
STARTCHAR 00B3
ENCODING 179
SWIDTH 315 0
DWIDTH 14 0
BBX 14 20 0 12
BITMAP
0FC0
3FE0
7FF0
7CF8
F878
F038
0078
00F8
07F0
07F0
07F8
0078
0078
003C
F03C
F078
7CF8
7FF8
3FF0
0FC0
ENDCHAR
STARTCHAR 00B4
ENCODING 180
SWIDTH 247 0
DWIDTH 11 0
BBX 9 7 2 25
BITMAP
0F80
1F00
3F00
3E00
7C00
7800
F000
ENDCHAR
STARTCHAR 00B5
ENCODING 181
SWIDTH 540 0
DWIDTH 24 0
BBX 18 32 3 -9
BITMAP
F007C0
F007C0
F007C0
F007C0
F007C0
F007C0
F007C0
F007C0
F007C0
F007C0
F007C0
F007C0
F007C0
F007C0
F007C0
F807C0
F807C0
FC0FC0
FFFFC0
FFFFC0
FFFFC0
FFF7C0
F7C7C0
F00000
F00000
F00000
F00000
F00000
F00000
F00000
F00000
F00000
ENDCHAR
STARTCHAR 00B6
ENCODING 182
SWIDTH 607 0
DWIDTH 27 0
BBX 20 40 2 -8
BITMAP
03FFF0
0FFFF0
3FFFF0
7FF8F0
7FF8F0
7FF8F0
FFF8F0
FFF8F0
FFF8F0
FFF8F0
FFF8F0
7FF8F0
7FF8F0
3FF8F0
1FF8F0
0FF8F0
01F8F0
0078F0
0078F0
0078F0
0078F0
0078F0
0078F0
0078F0
0078F0
0078F0
0078F0
0078F0
0078F0
0078F0
0078F0
0078F0
0078F0
0078F0
0078F0
0078F0
0078F0
0078F0
0078F0
0078F0
ENDCHAR
STARTCHAR 00B7
ENCODING 183
SWIDTH 247 0
DWIDTH 11 0
BBX 6 6 2 10
BITMAP
38
7C
FC
FC
7C
38
ENDCHAR
STARTCHAR 00B8
ENCODING 184
SWIDTH 247 0
DWIDTH 11 0
BBX 10 10 0 -10
BITMAP
0C00
1C00
1F00
3F80
03C0
01C0
01C0
47C0
FF80
3F00
ENDCHAR
STARTCHAR 00B9
ENCODING 185
SWIDTH 315 0
DWIDTH 14 0
BBX 7 20 2 12
BITMAP
3E
7E
FE
FE
DE
9E
1E
1E
1E
1E
1E
1E
1E
1E
1E
1E
1E
1E
1E
1E
ENDCHAR
STARTCHAR 00BA
ENCODING 186
SWIDTH 315 0
DWIDTH 14 0
BBX 13 14 1 18
BITMAP
1F80
3FE0
7FF0
F0F0
E078
E078
E078
E078
E078
F078
F0F0
7FF0
3FE0
1F80
ENDCHAR
STARTCHAR 00BB
ENCODING 187
SWIDTH 472 0
DWIDTH 21 0
BBX 17 18 2 3
BITMAP
808000
C0C000
E0E000
F0F000
F8F800
7C7C00
3E3E00
1F1F00
0F8F80
0F8F80
1F1F00
3E3E00
7C7C00
F8F800
F0F000
E0E000
C0C000
808000
ENDCHAR
STARTCHAR 00BC
ENCODING 188
SWIDTH 720 0
DWIDTH 32 0
BBX 29 34 2 -1
BITMAP
00000700
3E000700
7E000E00
FE000E00
FE001C00
DE003800
9E003800
1E007000
1E007000
1E00E000
1E00E000
1E01C000
1E038000
1E038000
1E070000
1E070780
1E0E0700
1E0E0F00
1E1C1E00
1E381E00
1E383C00
00703C00
00707800
00E071E0
00E0F1E0
01C0E1E0
0381E1E0
0381FFF8
0701FFF8
0701FFF8
0E0001E0
0E0001E0
1C0001E0
38000000
ENDCHAR
STARTCHAR 00BD
ENCODING 189
SWIDTH 720 0
DWIDTH 32 0
BBX 29 34 2 -1
BITMAP
00000E00
3E000E00
7E001C00
FE001800
FE003800
DE007000
9E007000
1E00E000
1E00E000
1E01C000
1E018000
1E038000
1E070000
1E070000
1E0E0F80
1E0E3FE0
1E1C7FF0
1E1878F0
1E38F070
1E70F078
1E700078
00E000F0
00E001F0
01C003E0
038007C0
03800F80
07001F00
07003E00
0E007C00
0E00F800
1C00FFF8
3800FFF8
3800FFF8
70000000
ENDCHAR
STARTCHAR 00BE
ENCODING 190
SWIDTH 720 0
DWIDTH 32 0
BBX 31 33 0 -1
BITMAP
0FC000E0
3FE000E0
7FF001C0
7CF80380
F8780380
F0380700
00780700
00F80E00
07F00E00
07F01C00
07F83800
00783800
00787000
003C71E0
F03CE1E0
F078E3C0
7CF9C3C0
7FFB8780
3FF38780
0FC70F00
00070E00
000E1E00
000C1C78
001C3C78
00383878
00387878
00707FFE
00707FFE
00E07FFE
00C00078
01C00078
03800078
03800000
ENDCHAR
STARTCHAR 00BF
ENCODING 191
SWIDTH 472 0
DWIDTH 21 0
BBX 17 32 2 -9
BITMAP
01E000
01E000
01E000
01E000
01E000
000000
000000
000000
01E000
01E000
01E000
03E000
03E000
03E000
07C000
0FC000
1F8000
1F0000
3E0000
7E0000
7C0000
F80000
F80000
F80780
F80F80
780F80
7C1F80
7FFF00
3FFF00
1FFE00
0FFC00
03F000
ENDCHAR
STARTCHAR 00C0
ENCODING 192
SWIDTH 607 0
DWIDTH 27 0
BBX 27 40 0 0
BITMAP
01F80000
00FC0000
007C0000
003E0000
001F0000
000F0000
00078000
00000000
001F0000
001F0000
001F0000
003F8000
003F8000
003FC000
007FC000
007BC000
00FBE000
00F9E000
00F1E000
01F1F000
01F1F000
01E0F000
03E0F800
03E0F800
03C07800
07C07C00
07C07C00
07803E00
0F803E00
0FFFFE00
1FFFFF00
1FFFFF00
1FFFFF00
3E000F80
3E000F80
3E000F80
7C0007C0
7C0007C0
7C0007E0
F80003E0
ENDCHAR
STARTCHAR 00C1
ENCODING 193
SWIDTH 607 0
DWIDTH 27 0
BBX 27 40 0 0
BITMAP
0003F000
0007E000
0007C000
000F8000
001F0000
001E0000
003C0000
00000000
001F0000
001F0000
001F0000
003F8000
003F8000
003FC000
007FC000
007BC000
00FBE000
00F9E000
00F1E000
01F1F000
01F1F000
01E0F000
03E0F800
03E0F800
03C07800
07C07C00
07C07C00
07803E00
0F803E00
0FFFFE00
1FFFFF00
1FFFFF00
1FFFFF00
3E000F80
3E000F80
3E000F80
7C0007C0
7C0007C0
7C0007E0
F80003E0
ENDCHAR
STARTCHAR 00C2
ENCODING 194
SWIDTH 607 0
DWIDTH 27 0
BBX 27 40 0 0
BITMAP
001F0000
003F8000
007FC000
00FBE000
00F1E000
01E0F000
03E07800
00000000
001F0000
001F0000
001F0000
003F8000
003F8000
003FC000
007FC000
007BC000
00FBE000
00F9E000
00F1E000
01F1F000
01F1F000
01E0F000
03E0F800
03E0F800
03C07800
07C07C00
07C07C00
07803E00
0F803E00
0FFFFE00
1FFFFF00
1FFFFF00
1FFFFF00
3E000F80
3E000F80
3E000F80
7C0007C0
7C0007C0
7C0007E0
F80003E0
ENDCHAR
STARTCHAR 00C3
ENCODING 195
SWIDTH 607 0
DWIDTH 27 0
BBX 27 39 0 0
BITMAP
00F81800
01FF3800
03FFF800
038FF000
0303E000
00000000
00000000
001F0000
001F0000
001F0000
003F8000
003F8000
003FC000
007FC000
007BC000
00FBE000
00F9E000
00F1E000
01F1F000
01F1F000
01E0F000
03E0F800
03E0F800
03C07800
07C07C00
07C07C00
07803E00
0F803E00
0FFFFE00
1FFFFF00
1FFFFF00
1FFFFF00
3E000F80
3E000F80
3E000F80
7C0007C0
7C0007C0
7C0007E0
F80003E0
ENDCHAR
STARTCHAR 00C4
ENCODING 196
SWIDTH 607 0
DWIDTH 27 0
BBX 27 39 0 0
BITMAP
01F1F000
01F1F000
01F1F000
01F1F000
01F1F000
00000000
00000000
001F0000
001F0000
001F0000
003F8000
003F8000
003FC000
007FC000
007BC000
00FBE000
00F9E000
00F1E000
01F1F000
01F1F000
01E0F000
03E0F800
03E0F800
03C07800
07C07C00
07C07C00
07803E00
0F803E00
0FFFFE00
1FFFFF00
1FFFFF00
1FFFFF00
3E000F80
3E000F80
3E000F80
7C0007C0
7C0007C0
7C0007E0
F80003E0
ENDCHAR
STARTCHAR 00C5
ENCODING 197
SWIDTH 607 0
DWIDTH 27 0
BBX 27 42 0 0
BITMAP
001F0000
003F8000
0071C000
0060C000
0060C000
0060C000
0071C000
003F8000
001F0000
00000000
001F0000
001F0000
001F0000
003F8000
003F8000
003FC000
007FC000
007BC000
00FBE000
00F9E000
00F1E000
01F1F000
01F1F000
01E0F000
03E0F800
03E0F800
03C07800
07C07C00
07C07C00
07803E00
0F803E00
0FFFFE00
1FFFFF00
1FFFFF00
1FFFFF00
3E000F80
3E000F80
3E000F80
7C0007C0
7C0007C0
7C0007E0
F80003E0
ENDCHAR
STARTCHAR 00C6
ENCODING 198
SWIDTH 900 0
DWIDTH 40 0
BBX 39 32 0 0
BITMAP
0000FFFFFE
0000FFFFFE
0001FFFFFE
0001FFFFFE
0003FFFFFE
0003DF0000
0007DF0000
00079F0000
000F9F0000
000F1F0000
001F1F0000
001E1F0000
003E1F0000
007C1F0000
007C1FFFF8
00F81FFFF8
00F81FFFF8
01F01FFFF8
01F01F0000
03E01F0000
03E01F0000
07FFFF0000
07FFFF0000
0FFFFF0000
0FFFFF0000
1F001F0000
3F001F0000
3E001FFFFE
7C001FFFFE
7C001FFFFE
F8001FFFFE
F8001FFFFE
ENDCHAR
STARTCHAR 00C7
ENCODING 199
SWIDTH 562 0
DWIDTH 25 0
BBX 23 42 2 -10
BITMAP
00FE00
03FF80
0FFFE0
1FFFF0
3FFFF8
3F83F8
7E00FC
7C007C
7C007C
F80000
F80000
F80000
F80000
F80000
F80000
F80000
F80000
F80000
F80000
F80000
F80000
F80000
F80000
7C007E
7C007C
7E00FC
3F83F8
3FFFF8
1FFFF0
0FFFE0
03FF80
00FE00
001800
003000
007C00
00FF00
000F00
000700
000700
018F00
01FE00
00FC00
ENDCHAR
STARTCHAR 00C8
ENCODING 200
SWIDTH 562 0
DWIDTH 25 0
BBX 21 40 3 0
BITMAP
07C000
03E000
03F000
01F000
00F800
007800
003C00
000000
FFFFF8
FFFFF8
FFFFF8
FFFFF8
FFFFF8
F80000
F80000
F80000
F80000
F80000
F80000
F80000
F80000
F80000
FFFFC0
FFFFC0
FFFFC0
FFFFC0
F80000
F80000
F80000
F80000
F80000
F80000
F80000
F80000
F80000
FFFFF8
FFFFF8
FFFFF8
FFFFF8
FFFFF8
ENDCHAR
STARTCHAR 00C9
ENCODING 201
SWIDTH 562 0
DWIDTH 25 0
BBX 21 40 3 0
BITMAP
001F80
003F00
003E00
007C00
00F800
00F000
01E000
000000
FFFFF8
FFFFF8
FFFFF8
FFFFF8
FFFFF8
F80000
F80000
F80000
F80000
F80000
F80000
F80000
F80000
F80000
FFFFC0
FFFFC0
FFFFC0
FFFFC0
F80000
F80000
F80000
F80000
F80000
F80000
F80000
F80000
F80000
FFFFF8
FFFFF8
FFFFF8
FFFFF8
FFFFF8
ENDCHAR
STARTCHAR 00CA
ENCODING 202
SWIDTH 562 0
DWIDTH 25 0
BBX 21 40 3 0
BITMAP
00FC00
01FC00
03FE00
03DF00
078F00
0F0780
1F03C0
000000
FFFFF8
FFFFF8
FFFFF8
FFFFF8
FFFFF8
F80000
F80000
F80000
F80000
F80000
F80000
F80000
F80000
F80000
FFFFC0
FFFFC0
FFFFC0
FFFFC0
F80000
F80000
F80000
F80000
F80000
F80000
F80000
F80000
F80000
FFFFF8
FFFFF8
FFFFF8
FFFFF8
FFFFF8
ENDCHAR
STARTCHAR 00CB
ENCODING 203
SWIDTH 562 0
DWIDTH 25 0
BBX 21 39 3 0
BITMAP
0F8F80
0F8F80
0F8F80
0F8F80
0F8F80
000000
000000
FFFFF8
FFFFF8
FFFFF8
FFFFF8
FFFFF8
F80000
F80000
F80000
F80000
F80000
F80000
F80000
F80000
F80000
FFFFC0
FFFFC0
FFFFC0
FFFFC0
F80000
F80000
F80000
F80000
F80000
F80000
F80000
F80000
F80000
FFFFF8
FFFFF8
FFFFF8
FFFFF8
FFFFF8
ENDCHAR
STARTCHAR 00CC
ENCODING 204
SWIDTH 247 0
DWIDTH 11 0
BBX 9 40 0 0
BITMAP
F800
7C00
3E00
3E00
1F00
0F80
0780
0000
1F00
1F00
1F00
1F00
1F00
1F00
1F00
1F00
1F00
1F00
1F00
1F00
1F00
1F00
1F00
1F00
1F00
1F00
1F00
1F00
1F00
1F00
1F00
1F00
1F00
1F00
1F00
1F00
1F00
1F00
1F00
1F00
ENDCHAR
STARTCHAR 00CD
ENCODING 205
SWIDTH 247 0
DWIDTH 11 0
BBX 10 40 2 0
BITMAP
0FC0
1F80
1F00
3E00
3C00
7800
F000
0000
7C00
7C00
7C00
7C00
7C00
7C00
7C00
7C00
7C00
7C00
7C00
7C00
7C00
7C00
7C00
7C00
7C00
7C00
7C00
7C00
7C00
7C00
7C00
7C00
7C00
7C00
7C00
7C00
7C00
7C00
7C00
7C00
ENDCHAR
STARTCHAR 00CE
ENCODING 206
SWIDTH 247 0
DWIDTH 11 0
BBX 15 40 -2 0
BITMAP
07E0
0FE0
1FF0
1EF8
3C7C
7C3C
F81E
0000
07C0
07C0
07C0
07C0
07C0
07C0
07C0
07C0
07C0
07C0
07C0
07C0
07C0
07C0
07C0
07C0
07C0
07C0
07C0
07C0
07C0
07C0
07C0
07C0
07C0
07C0
07C0
07C0
07C0
07C0
07C0
07C0
ENDCHAR
STARTCHAR 00CF
ENCODING 207
SWIDTH 247 0
DWIDTH 11 0
BBX 13 39 -1 0
BITMAP
F8F8
F8F8
F8F8
F8F8
F8F8
0000
0000
0F80
0F80
0F80
0F80
0F80
0F80
0F80
0F80
0F80
0F80
0F80
0F80
0F80
0F80
0F80
0F80
0F80
0F80
0F80
0F80
0F80
0F80
0F80
0F80
0F80
0F80
0F80
0F80
0F80
0F80
0F80
0F80
ENDCHAR
STARTCHAR 00D0
ENCODING 208
SWIDTH 630 0
DWIDTH 28 0
BBX 26 32 0 0
BITMAP
1FFFC000
1FFFF000
1FFFFC00
1FFFFE00
1FFFFE00
1F003F00
1F001F80
1F000F80
1F000F80
1F000780
1F0007C0
1F0007C0
1F0007C0
1F0007C0
FFFC07C0
FFFC07C0
FFFC07C0
FFFC07C0
1F0007C0
1F0007C0
1F0007C0
1F0007C0
1F000780
1F000F80
1F000F80
1F001F80
1F003F00
1FFFFE00
1FFFFE00
1FFFFC00
1FFFF000
1FFFC000
ENDCHAR
STARTCHAR 00D1
ENCODING 209
SWIDTH 675 0
DWIDTH 30 0
BBX 24 39 3 0
BITMAP
01F070
03FCF0
07FFE0
073FE0
0E0780
000000
000000
F8001F
FC001F
FC001F
FE001F
FF001F
FF001F
FF801F
FFC01F
FFC01F
FFE01F
FBE01F
F9F01F
F9F81F
F8F81F
F8FC1F
F87E1F
F83E1F
F83F1F
F81F9F
F80F9F
F80FDF
F807DF
F803FF
F803FF
F801FF
F801FF
F800FF
F8007F
F8007F
F8003F
F8001F
F8001F
ENDCHAR
STARTCHAR 00D2
ENCODING 210
SWIDTH 607 0
DWIDTH 27 0
BBX 23 40 2 0
BITMAP
07E000
03F000
01F000
00F800
007C00
003C00
001E00
000000
00FE00
03FF80
0FFFE0
1FFFF0
3FFFF8
3F83F8
7E00FC
7C007C
7C007C
F8003E
F8003E
F8003E
F8003E
F8003E
F8003E
F8003E
F8003E
F8003E
F8003E
F8003E
F8003E
F8003E
F8003E
7C007C
7C007C
7E00FC
3F83F8
3FFFF8
1FFFF0
0FFFE0
03FF80
00FE00
ENDCHAR
STARTCHAR 00D3
ENCODING 211
SWIDTH 607 0
DWIDTH 27 0
BBX 23 40 2 0
BITMAP
000FC0
001F80
001F00
003E00
007C00
007800
00F000
000000
00FE00
03FF80
0FFFE0
1FFFF0
3FFFF8
3F83F8
7E00FC
7C007C
7C007C
F8003E
F8003E
F8003E
F8003E
F8003E
F8003E
F8003E
F8003E
F8003E
F8003E
F8003E
F8003E
F8003E
F8003E
7C007C
7C007C
7E00FC
3F83F8
3FFFF8
1FFFF0
0FFFE0
03FF80
00FE00
ENDCHAR
STARTCHAR 00D4
ENCODING 212
SWIDTH 607 0
DWIDTH 27 0
BBX 23 40 2 0
BITMAP
007C00
00FE00
01FF00
03EF80
03C780
0783C0
0F81E0
000000
00FE00
03FF80
0FFFE0
1FFFF0
3FFFF8
3F83F8
7E00FC
7C007C
7C007C
F8003E
F8003E
F8003E
F8003E
F8003E
F8003E
F8003E
F8003E
F8003E
F8003E
F8003E
F8003E
F8003E
F8003E
7C007C
7C007C
7E00FC
3F83F8
3FFFF8
1FFFF0
0FFFE0
03FF80
00FE00
ENDCHAR
STARTCHAR 00D5
ENCODING 213
SWIDTH 607 0
DWIDTH 27 0
BBX 23 39 2 0
BITMAP
03E060
07F8E0
0FFFE0
0E7FC0
0C0F80
000000
000000
00FE00
03FF80
0FFFE0
1FFFF0
3FFFF8
3F83F8
7E00FC
7C007C
7C007C
F8003E
F8003E
F8003E
F8003E
F8003E
F8003E
F8003E
F8003E
F8003E
F8003E
F8003E
F8003E
F8003E
F8003E
7C007C
7C007C
7E00FC
3F83F8
3FFFF8
1FFFF0
0FFFE0
03FF80
00FE00
ENDCHAR
STARTCHAR 00D6
ENCODING 214
SWIDTH 607 0
DWIDTH 27 0
BBX 23 39 2 0
BITMAP
07C7C0
07C7C0
07C7C0
07C7C0
07C7C0
000000
000000
00FE00
03FF80
0FFFE0
1FFFF0
3FFFF8
3F83F8
7E00FC
7C007C
7C007C
F8003E
F8003E
F8003E
F8003E
F8003E
F8003E
F8003E
F8003E
F8003E
F8003E
F8003E
F8003E
F8003E
F8003E
7C007C
7C007C
7E00FC
3F83F8
3FFFF8
1FFFF0
0FFFE0
03FF80
00FE00
ENDCHAR
STARTCHAR 00D7
ENCODING 215
SWIDTH 607 0
DWIDTH 27 0
BBX 21 21 3 1
BITMAP
200000
700060
F800F0
7C01F0
3E03E0
1F07C0
0F8F80
07DF00
03FE00
01FC00
00F800
01FC00
03FE00
07DF00
0F8F80
1F07C0
3E03E0
7C01F0
F800F8
700070
200020
ENDCHAR
STARTCHAR 00D8
ENCODING 216
SWIDTH 607 0
DWIDTH 27 0
BBX 23 36 2 -2
BITMAP
000008
00001C
00FE1C
03FFB8
0FFFF0
1FFFF0
3FFFF8
3F83F8
7E01FC
7C01FC
7C03FC
F8033E
F8073E
F8063E
F80E3E
F80C3E
F81C3E
F8383E
F8383E
F8703E
F8603E
F8E03E
F8C03E
F9C03E
F9803E
7F807C
7F007C
7F00FC
3F83F8
3FFFF8
1FFFF0
1FFFE0
3BFF80
70FE00
700000
200000
ENDCHAR
STARTCHAR 00D9
ENCODING 217
SWIDTH 630 0
DWIDTH 28 0
BBX 22 40 3 0
BITMAP
07E000
03E000
01F000
00F800
007800
003C00
001C00
000000
F8007C
F8007C
F8007C
F8007C
F8007C
F8007C
F8007C
F8007C
F8007C
F8007C
F8007C
F8007C
F8007C
F8007C
F8007C
F8007C
F8007C
F8007C
F8007C
F8007C
F8007C
F8007C
F8007C
F8007C
FC00FC
7C00F8
7F03F8
3FFFF0
3FFFE0
0FFFC0
07FF80
01FE00
ENDCHAR
STARTCHAR 00DA
ENCODING 218
SWIDTH 630 0
DWIDTH 28 0
BBX 22 40 3 0
BITMAP
001F80
001F00
003E00
007C00
007800
00F000
00E000
000000
F8007C
F8007C
F8007C
F8007C
F8007C
F8007C
F8007C
F8007C
F8007C
F8007C
F8007C
F8007C
F8007C
F8007C
F8007C
F8007C
F8007C
F8007C
F8007C
F8007C
F8007C
F8007C
F8007C
F8007C
FC00FC
7C00F8
7F03F8
3FFFF0
3FFFE0
0FFFC0
07FF80
01FE00
ENDCHAR
STARTCHAR 00DB
ENCODING 219
SWIDTH 630 0
DWIDTH 28 0
BBX 22 40 3 0
BITMAP
00FC00
01FE00
01FE00
03CF00
07CF80
0F87C0
0F03C0
000000
F8007C
F8007C
F8007C
F8007C
F8007C
F8007C
F8007C
F8007C
F8007C
F8007C
F8007C
F8007C
F8007C
F8007C
F8007C
F8007C
F8007C
F8007C
F8007C
F8007C
F8007C
F8007C
F8007C
F8007C
FC00FC
7C00F8
7F03F8
3FFFF0
3FFFE0
0FFFC0
07FF80
01FE00
ENDCHAR
STARTCHAR 00DC
ENCODING 220
SWIDTH 630 0
DWIDTH 28 0
BBX 22 39 3 0
BITMAP
078F80
078F80
078F80
078F80
078F80
000000
000000
F8007C
F8007C
F8007C
F8007C
F8007C
F8007C
F8007C
F8007C
F8007C
F8007C
F8007C
F8007C
F8007C
F8007C
F8007C
F8007C
F8007C
F8007C
F8007C
F8007C
F8007C
F8007C
F8007C
F8007C
FC00FC
7C00F8
7F03F8
3FFFF0
3FFFE0
0FFFC0
07FF80
01FE00
ENDCHAR
STARTCHAR 00DD
ENCODING 221
SWIDTH 495 0
DWIDTH 22 0
BBX 23 40 0 0
BITMAP
001F80
001F00
003E00
003C00
007800
00F000
00E000
000000
F8003E
F8007C
7C007C
7C00F8
3E00F8
3E01F0
1E01F0
1F03E0
0F03E0
0F87C0
0787C0
07CF80
03CF80
03FF00
01FF00
01FE00
00FE00
00FC00
007C00
007800
007800
007800
007800
007800
007800
007800
007800
007800
007800
007800
007800
007800
ENDCHAR
STARTCHAR 00DE
ENCODING 222
SWIDTH 585 0
DWIDTH 26 0
BBX 22 32 3 0
BITMAP
F80000
F80000
F80000
F80000
F80000
FFF800
FFFF80
FFFFE0
FFFFF0
FFFFF0
F801F8
F800FC
F8007C
F8007C
F8007C
F8007C
F8007C
F8007C
F800FC
F801F8
FFFFF8
FFFFF0
FFFFE0
FFFFC0
FFFF00
F80000
F80000
F80000
F80000
F80000
F80000
F80000
ENDCHAR
STARTCHAR 00DF
ENCODING 223
SWIDTH 540 0
DWIDTH 24 0
BBX 18 32 3 0
BITMAP
07F800
1FFE00
3FFF00
7FFF80
FFFF80
F807C0
F807C0
F007C0
F007C0
F007C0
F00F80
F0FF80
F0FE00
F0FF00
F0FF80
F007C0
F007C0
F007C0
F007C0
F007C0
F007C0
F007C0
F007C0
F007C0
F007C0
F007C0
F007C0
F00FC0
F07F80
F07F80
F07F00
F07C00
ENDCHAR
STARTCHAR 00E0
ENCODING 224
SWIDTH 495 0
DWIDTH 22 0
BBX 18 32 1 0
BITMAP
0FC000
07C000
03E000
01F000
00F000
007800
003C00
000000
000000
07F800
1FFF00
3FFF80
3FFF80
1E1FC0
0807C0
0003C0
0003C0
0003C0
07FFC0
1FFFC0
3FFFC0
7FFFC0
7C03C0
F803C0
F003C0
F803C0
F807C0
FE0FC0
7FFFC0
3FFFC0
1FFBC0
07F3C0
ENDCHAR
STARTCHAR 00E1
ENCODING 225
SWIDTH 495 0
DWIDTH 22 0
BBX 18 32 1 0
BITMAP
003F00
003E00
007C00
007800
00F000
01E000
01C000
000000
000000
07F800
1FFF00
3FFF80
3FFF80
1E1FC0
0807C0
0003C0
0003C0
0003C0
07FFC0
1FFFC0
3FFFC0
7FFFC0
7C03C0
F803C0
F003C0
F803C0
F807C0
FE0FC0
7FFFC0
3FFFC0
1FFBC0
07F3C0
ENDCHAR
STARTCHAR 00E2
ENCODING 226
SWIDTH 495 0
DWIDTH 22 0
BBX 18 32 1 0
BITMAP
01F800
03FC00
03FC00
079E00
0F8F00
0F0F80
1E0780
000000
000000
07F800
1FFF00
3FFF80
3FFF80
1E1FC0
0807C0
0003C0
0003C0
0003C0
07FFC0
1FFFC0
3FFFC0
7FFFC0
7C03C0
F803C0
F003C0
F803C0
F807C0
FE0FC0
7FFFC0
3FFFC0
1FFBC0
07F3C0
ENDCHAR
STARTCHAR 00E3
ENCODING 227
SWIDTH 495 0
DWIDTH 22 0
BBX 18 31 1 0
BITMAP
07C1C0
0FF3C0
1FFF80
38FF00
381E00
000000
000000
000000
07F800
1FFF00
3FFF80
3FFF80
1E1FC0
0807C0
0003C0
0003C0
0003C0
07FFC0
1FFFC0
3FFFC0
7FFFC0
7C03C0
F803C0
F003C0
F803C0
F807C0
FE0FC0
7FFFC0
3FFFC0
1FFBC0
07F3C0
ENDCHAR
STARTCHAR 00E4
ENCODING 228
SWIDTH 495 0
DWIDTH 22 0
BBX 18 31 1 0
BITMAP
0F8F00
0F8F00
0F8F00
0F8F00
0F8F00
000000
000000
000000
07F800
1FFF00
3FFF80
3FFF80
1E1FC0
0807C0
0003C0
0003C0
0003C0
07FFC0
1FFFC0
3FFFC0
7FFFC0
7C03C0
F803C0
F003C0
F803C0
F807C0
FE0FC0
7FFFC0
3FFFC0
1FFBC0
07F3C0
ENDCHAR
STARTCHAR 00E5
ENCODING 229
SWIDTH 495 0
DWIDTH 22 0
BBX 18 34 1 0
BITMAP
00F000
01FC00
030C00
030600
020600
020600
030C00
01FC00
00F000
000000
000000
07F800
1FFF00
3FFF80
3FFF80
1E1FC0
0807C0
0003C0
0003C0
0003C0
07FFC0
1FFFC0
3FFFC0
7FFFC0
7C03C0
F803C0
F003C0
F803C0
F807C0
FE0FC0
7FFFC0
3FFFC0
1FFBC0
07F3C0
ENDCHAR
STARTCHAR 00E6
ENCODING 230
SWIDTH 787 0
DWIDTH 35 0
BBX 32 23 1 0
BITMAP
07F01F80
1FFE7FF0
3FFFFFF8
7FFFFFFC
1E1FF8FC
0807E03E
0007C03E
0007C01F
0007C01F
07FFFFFF
3FFFFFFF
7FFFFFFF
7FFFFFFF
FC07C000
F007C000
F007C000
F007E000
F807E018
FC1FF87C
7FFFFFFE
7FFEFFFC
3FF87FF8
07E01FE0
ENDCHAR
STARTCHAR 00E7
ENCODING 231
SWIDTH 450 0
DWIDTH 20 0
BBX 18 33 1 -10
BITMAP
01FC00
07FF00
0FFF80
1FFFC0
3FFFC0
7E0380
7C0100
780000
F80000
F80000
F80000
F80000
F80000
F80000
F80000
780000
7C0100
7E0380
3FFFC0
1FFFC0
0FFF80
07FF00
01FC00
007000
006000
00F800
01FC00
001E00
000E00
000E00
031E00
07FC00
01F800
ENDCHAR
STARTCHAR 00E8
ENCODING 232
SWIDTH 495 0
DWIDTH 22 0
BBX 18 32 2 0
BITMAP
1F8000
0F8000
07C000
03E000
01E000
00F000
007800
000000
000000
03F000
0FFC00
1FFF00
3FFF00
7F1F80
7C0FC0
F807C0
F803C0
F003C0
FFFFC0
FFFFC0
FFFFC0
FFFFC0
F00000
F00000
F80000
F80000
7C0700
7F1F80
3FFFC0
1FFF80
0FFE00
03F800
ENDCHAR
STARTCHAR 00E9
ENCODING 233
SWIDTH 495 0
DWIDTH 22 0
BBX 18 32 2 0
BITMAP
007E00
007C00
00F800
00F000
01E000
03C000
038000
000000
000000
03F000
0FFC00
1FFF00
3FFF00
7F1F80
7C0FC0
F807C0
F803C0
F003C0
FFFFC0
FFFFC0
FFFFC0
FFFFC0
F00000
F00000
F80000
F80000
7C0700
7F1F80
3FFFC0
1FFF80
0FFE00
03F800
ENDCHAR
STARTCHAR 00EA
ENCODING 234
SWIDTH 495 0
DWIDTH 22 0
BBX 18 32 2 0
BITMAP
03F000
07F800
07F800
0F3C00
1F1E00
1E1F00
3C0F00
000000
000000
03F000
0FFC00
1FFF00
3FFF00
7F1F80
7C0FC0
F807C0
F803C0
F003C0
FFFFC0
FFFFC0
FFFFC0
FFFFC0
F00000
F00000
F80000
F80000
7C0700
7F1F80
3FFFC0
1FFF80
0FFE00
03F800
ENDCHAR
STARTCHAR 00EB
ENCODING 235
SWIDTH 495 0
DWIDTH 22 0
BBX 18 31 2 0
BITMAP
1F1E00
1F1E00
1F1E00
1F1E00
1F1E00
000000
000000
000000
03F000
0FFC00
1FFF00
3FFF00
7F1F80
7C0FC0
F807C0
F803C0
F003C0
FFFFC0
FFFFC0
FFFFC0
FFFFC0
F00000
F00000
F80000
F80000
7C0700
7F1F80
3FFFC0
1FFF80
0FFE00
03F800
ENDCHAR
STARTCHAR 00EC
ENCODING 236
SWIDTH 247 0
DWIDTH 11 0
BBX 10 32 -1 0
BITMAP
FC00
7E00
3E00
1F00
0F80
0780
03C0
0000
0000
0F80
0F80
0F80
0F80
0F80
0F80
0F80
0F80
0F80
0F80
0F80
0F80
0F80
0F80
0F80
0F80
0F80
0F80
0F80
0F80
0F80
0F80
0F80
ENDCHAR
STARTCHAR 00ED
ENCODING 237
SWIDTH 247 0
DWIDTH 11 0
BBX 9 32 2 0
BITMAP
0F80
1F00
3F00
3E00
7C00
7800
F000
0000
0000
7C00
7C00
7C00
7C00
7C00
7C00
7C00
7C00
7C00
7C00
7C00
7C00
7C00
7C00
7C00
7C00
7C00
7C00
7C00
7C00
7C00
7C00
7C00
ENDCHAR
STARTCHAR 00EE
ENCODING 238
SWIDTH 247 0
DWIDTH 11 0
BBX 15 32 -2 0
BITMAP
0FC0
0FE0
1FF0
3EF0
3C78
783C
F03E
0000
0000
07C0
07C0
07C0
07C0
07C0
07C0
07C0
07C0
07C0
07C0
07C0
07C0
07C0
07C0
07C0
07C0
07C0
07C0
07C0
07C0
07C0
07C0
07C0
ENDCHAR
STARTCHAR 00EF
ENCODING 239
SWIDTH 247 0
DWIDTH 11 0
BBX 13 31 -1 0
BITMAP
F8F8
F8F8
F8F8
F8F8
F8F8
0000
0000
0000
0F80
0F80
0F80
0F80
0F80
0F80
0F80
0F80
0F80
0F80
0F80
0F80
0F80
0F80
0F80
0F80
0F80
0F80
0F80
0F80
0F80
0F80
0F80
ENDCHAR
STARTCHAR 00F0
ENCODING 240
SWIDTH 495 0
DWIDTH 22 0
BBX 19 33 2 1
BITMAP
078080
07E3C0
0FFFE0
01FF80
00FE00
03FE00
07FF00
078F80
020F80
000780
03E7C0
0FFBC0
1FFFC0
3FFFC0
7FFFC0
7C0FC0
F807C0
F807C0
F003C0
F003C0
F003C0
F003C0
F003C0
F003C0
F003C0
F807C0
F807C0
7C0FC0
7FFF80
3FFF00
1FFF00
0FFC00
03F000
ENDCHAR
STARTCHAR 00F1
ENCODING 241
SWIDTH 540 0
DWIDTH 24 0
BBX 18 32 3 0
BITMAP
000380
1F8700
3FFF00
3FFE00
707C00
700000
000000
000000
000000
F1F800
F3FE00
F7FF00
FFFF80
FFFF80
FC0FC0
F807C0
F807C0
F807C0
F007C0
F007C0
F007C0
F007C0
F007C0
F007C0
F007C0
F007C0
F007C0
F007C0
F007C0
F007C0
F007C0
F007C0
ENDCHAR
STARTCHAR 00F2
ENCODING 242
SWIDTH 495 0
DWIDTH 22 0
BBX 18 32 2 0
BITMAP
1F8000
0F8000
07C000
03E000
01E000
00F000
007800
000000
000000
03F000
0FFC00
1FFF00
3FFF00
7FFF80
7C0FC0
F807C0
F807C0
F003C0
F003C0
F003C0
F003C0
F003C0
F003C0
F003C0
F807C0
F807C0
7C0FC0
7FFF80
3FFF00
1FFF00
0FFC00
03F000
ENDCHAR
STARTCHAR 00F3
ENCODING 243
SWIDTH 495 0
DWIDTH 22 0
BBX 18 32 2 0
BITMAP
007E00
007C00
00F800
00F000
01E000
03C000
038000
000000
000000
03F000
0FFC00
1FFF00
3FFF00
7FFF80
7C0FC0
F807C0
F807C0
F003C0
F003C0
F003C0
F003C0
F003C0
F003C0
F003C0
F807C0
F807C0
7C0FC0
7FFF80
3FFF00
1FFF00
0FFC00
03F000
ENDCHAR
STARTCHAR 00F4
ENCODING 244
SWIDTH 495 0
DWIDTH 22 0
BBX 18 32 2 0
BITMAP
03F000
07F800
07F800
0F3C00
1F1E00
1E1F00
3C0F00
000000
000000
03F000
0FFC00
1FFF00
3FFF00
7FFF80
7C0FC0
F807C0
F807C0
F003C0
F003C0
F003C0
F003C0
F003C0
F003C0
F003C0
F807C0
F807C0
7C0FC0
7FFF80
3FFF00
1FFF00
0FFC00
03F000
ENDCHAR
STARTCHAR 00F5
ENCODING 245
SWIDTH 495 0
DWIDTH 22 0
BBX 18 31 2 0
BITMAP
0F8380
1FE780
3FFF00
71FE00
703C00
000000
000000
000000
03F000
0FFC00
1FFF00
3FFF00
7FFF80
7C0FC0
F807C0
F807C0
F003C0
F003C0
F003C0
F003C0
F003C0
F003C0
F003C0
F807C0
F807C0
7C0FC0
7FFF80
3FFF00
1FFF00
0FFC00
03F000
ENDCHAR
STARTCHAR 00F6
ENCODING 246
SWIDTH 495 0
DWIDTH 22 0
BBX 18 31 2 0
BITMAP
1F1E00
1F1E00
1F1E00
1F1E00
1F1E00
000000
000000
000000
03F000
0FFC00
1FFF00
3FFF00
7FFF80
7C0FC0
F807C0
F807C0
F003C0
F003C0
F003C0
F003C0
F003C0
F003C0
F003C0
F807C0
F807C0
7C0FC0
7FFF80
3FFF00
1FFF00
0FFC00
03F000
ENDCHAR
STARTCHAR 00F7
ENCODING 247
SWIDTH 607 0
DWIDTH 27 0
BBX 23 24 2 -1
BITMAP
003800
007C00
00FC00
00FC00
007C00
003800
000000
000000
000000
000000
FFFFFE
FFFFFE
FFFFFE
000000
000000
000000
000000
000000
003800
007C00
00FC00
00FC00
007C00
003800
ENDCHAR
STARTCHAR 00F8
ENCODING 248
SWIDTH 495 0
DWIDTH 22 0
BBX 18 27 2 -2
BITMAP
000180
000180
03F380
0FFF00
1FFF00
3FFF00
7FFF80
7C1FC0
F81FC0
F83FC0
F073C0
F073C0
F0E3C0
F0C3C0
F1C3C0
F183C0
FB83C0
FF07C0
FF07C0
7E0FC0
7FFF80
3FFF00
1FFF00
3FFC00
73F000
700000
600000
ENDCHAR
STARTCHAR 00F9
ENCODING 249
SWIDTH 540 0
DWIDTH 24 0
BBX 18 32 3 0
BITMAP
1F0000
0F8000
0FC000
07C000
03E000
01E000
00F000
000000
000000
F007C0
F007C0
F007C0
F007C0
F007C0
F007C0
F007C0
F007C0
F007C0
F007C0
F007C0
F007C0
F007C0
F007C0
F007C0
F807C0
F807C0
FC0FC0
7FFFC0
7FFFC0
3FFFC0
1FF7C0
07C7C0
ENDCHAR
STARTCHAR 00FA
ENCODING 250
SWIDTH 540 0
DWIDTH 24 0
BBX 18 32 3 0
BITMAP
007E00
00FC00
00F800
01F000
03E000
03C000
078000
000000
000000
F007C0
F007C0
F007C0
F007C0
F007C0
F007C0
F007C0
F007C0
F007C0
F007C0
F007C0
F007C0
F007C0
F007C0
F007C0
F807C0
F807C0
FC0FC0
7FFFC0
7FFFC0
3FFFC0
1FF7C0
07C7C0
ENDCHAR
STARTCHAR 00FB
ENCODING 251
SWIDTH 540 0
DWIDTH 24 0
BBX 18 32 3 0
BITMAP
03F000
07F000
0FF800
0F7C00
1E3C00
3C1E00
7C0F00
000000
000000
F007C0
F007C0
F007C0
F007C0
F007C0
F007C0
F007C0
F007C0
F007C0
F007C0
F007C0
F007C0
F007C0
F007C0
F007C0
F807C0
F807C0
FC0FC0
7FFFC0
7FFFC0
3FFFC0
1FF7C0
07C7C0
ENDCHAR
STARTCHAR 00FC
ENCODING 252
SWIDTH 540 0
DWIDTH 24 0
BBX 18 31 3 0
BITMAP
3E3E00
3E3E00
3E3E00
3E3E00
3E3E00
000000
000000
000000
F007C0
F007C0
F007C0
F007C0
F007C0
F007C0
F007C0
F007C0
F007C0
F007C0
F007C0
F007C0
F007C0
F007C0
F007C0
F807C0
F807C0
FC0FC0
7FFFC0
7FFFC0
3FFFC0
1FF7C0
07C7C0
ENDCHAR
STARTCHAR 00FD
ENCODING 253
SWIDTH 450 0
DWIDTH 20 0
BBX 20 41 0 -9
BITMAP
003F00
003E00
007C00
00F800
00F000
01E000
03C000
000000
000000
F801F0
F801F0
7803E0
7C03E0
7C03C0
3C07C0
3E07C0
3E0780
1E0F80
1F0F80
0F0F00
0F1F00
0F9F00
079E00
07BE00
07FE00
03FC00
03FC00
03FC00
01F800
01F800
00F000
00F000
01F000
01E000
01E000
03E000
07C000
3FC000
3F8000
3F8000
3E0000
ENDCHAR
STARTCHAR 00FE
ENCODING 254
SWIDTH 517 0
DWIDTH 23 0
BBX 18 41 3 -9
BITMAP
F00000
F00000
F00000
F00000
F00000
F00000
F00000
F00000
F00000
F0F800
F3FE00
F7FF00
FFFF80
FFFF80
FC0FC0
F807C0
F807C0
F807C0
F807C0
F007C0
F007C0
F007C0
F007C0
F807C0
F807C0
F807C0
FC0FC0
FFFF80
FFFF80
F7FF00
F3FE00
F0F800
F00000
F00000
F00000
F00000
F00000
F00000
F00000
F00000
F00000
ENDCHAR
STARTCHAR 00FF
ENCODING 255
SWIDTH 450 0
DWIDTH 20 0
BBX 20 40 0 -9
BITMAP
0F1F00
0F1F00
0F1F00
0F1F00
0F1F00
000000
000000
000000
F801F0
F801F0
7803E0
7C03E0
7C03C0
3C07C0
3E07C0
3E0780
1E0F80
1F0F80
0F0F00
0F1F00
0F9F00
079E00
07BE00
07FE00
03FC00
03FC00
03FC00
01F800
01F800
00F000
00F000
01F000
01E000
01E000
03E000
07C000
3FC000
3F8000
3F8000
3E0000
ENDCHAR
STARTCHAR 0131
ENCODING 305
SWIDTH 247 0
DWIDTH 11 0
BBX 5 23 3 0
BITMAP
F8
F8
F8
F8
F8
F8
F8
F8
F8
F8
F8
F8
F8
F8
F8
F8
F8
F8
F8
F8
F8
F8
F8
ENDCHAR
STARTCHAR 0141
ENCODING 321
SWIDTH 562 0
DWIDTH 25 0
BBX 24 32 0 0
BITMAP
1F0000
1F0000
1F0000
1F0000
1F0000
1F0000
1F0000
1F0000
1F0000
1F0200
1F0E00
1F1E00
1F3E00
1FFC00
1FF000
1FE000
1FC000
1F0000
7F0000
FF0000
FF0000
FF0000
9F0000
1F0000
1F0000
1F0000
1F0000
1FFFFF
1FFFFF
1FFFFF
1FFFFF
1FFFFF
ENDCHAR
STARTCHAR 0142
ENCODING 322
SWIDTH 247 0
DWIDTH 11 0
BBX 11 32 0 0
BITMAP
1E00
1E00
1E00
1E00
1E00
1E00
1E00
1E00
1E00
1E40
1EC0
1FC0
1FC0
1F80
1F00
3E00
7E00
FE00
FE00
9E00
1E00
1E00
1E00
1E00
1E00
1E00
1E00
1F00
1FE0
1FE0
0FE0
03E0
ENDCHAR
STARTCHAR 0152
ENCODING 338
SWIDTH 922 0
DWIDTH 41 0
BBX 38 32 2 0
BITMAP
00FE3FFFFC
03FFBFFFFC
0FFFFFFFFC
1FFFFFFFFC
3FFFFFFFFC
3F01FE0000
7E00FE0000
7C007E0000
7C007E0000
F8003E0000
F8003E0000
F8003E0000
F8003E0000
F8003E0000
F8003FFFF0
F8003FFFF0
F8003FFFF0
F8003FFFF0
F8003E0000
F8003E0000
F8003E0000
F8003E0000
F8003E0000
7C007E0000
7C007E0000
7E00FE0000
3F01FE0000
3FFFFFFFFC
1FFFFFFFFC
0FFFFFFFFC
03FFBFFFFC
00FE3FFFFC
ENDCHAR
STARTCHAR 0153
ENCODING 339
SWIDTH 810 0
DWIDTH 36 0
BBX 32 23 2 0
BITMAP
03F00FC0
0FFC3FF0
1FFE7FFC
3FFFFFFC
7F1FFC7E
7C0FF03F
F807E01F
F803E00F
F003C00F
F003FFFF
F003FFFF
F003FFFF
F003FFFF
F003C000
F003E000
F807E000
F807E000
7C0FF01C
7F1FFC7E
3FFFFFFF
1FFE7FFE
0FFC3FFC
03F007E0
ENDCHAR
STARTCHAR 0160
ENCODING 352
SWIDTH 585 0
DWIDTH 26 0
BBX 23 40 1 0
BITMAP
0783E0
03C3C0
03E780
01FF00
00FF00
00FE00
007C00
000000
00FE00
07FFC0
0FFFF0
1FFFFC
3FFFF8
3F00F0
3E0030
7C0000
7C0000
7C0000
7C0000
7E0000
3F0000
3FF000
1FFF80
0FFFE0
07FFF0
01FFF8
0007FC
0000FC
00007C
00003E
00003E
00003E
20003E
78007C
7E01FC
FFFFFC
7FFFF8
3FFFF0
0FFFC0
01FF00
ENDCHAR
STARTCHAR 0161
ENCODING 353
SWIDTH 472 0
DWIDTH 21 0
BBX 19 32 1 0
BITMAP
1E0F80
1F1F00
0F9E00
07BC00
03FC00
03F800
01F000
000000
000000
03F800
0FFF00
3FFF80
3FFFC0
7E0F80
7C0300
780000
7C0000
7E0000
7FFC00
3FFF00
1FFF80
07FFC0
000FC0
0003E0
0003E0
2003E0
7807E0
FE0FC0
FFFFC0
7FFF80
1FFF00
07F800
ENDCHAR
STARTCHAR 0178
ENCODING 376
SWIDTH 495 0
DWIDTH 22 0
BBX 23 39 0 0
BITMAP
07C780
07C780
07C780
07C780
07C780
000000
000000
F8003E
F8007C
7C007C
7C00F8
3E00F8
3E01F0
1E01F0
1F03E0
0F03E0
0F87C0
0787C0
07CF80
03CF80
03FF00
01FF00
01FE00
00FE00
00FC00
007C00
007800
007800
007800
007800
007800
007800
007800
007800
007800
007800
007800
007800
007800
ENDCHAR
STARTCHAR 017D
ENCODING 381
SWIDTH 517 0
DWIDTH 23 0
BBX 21 40 1 0
BITMAP
0F0780
0F8F80
07CF00
03DE00
01FE00
01FC00
00F800
000000
7FFFF8
7FFFF8
7FFFF8
7FFFF8
0001F0
0003E0
0007E0
0007C0
000FC0
000F80
001F00
003F00
003E00
007E00
007C00
00F800
01F800
01F000
03F000
03E000
07C000
0FC000
0F8000
1F8000
1F0000
3E0000
7E0000
7FFFF8
FFFFF8
FFFFF8
FFFFF8
FFFFF8
ENDCHAR
STARTCHAR 017E
ENCODING 382
SWIDTH 450 0
DWIDTH 20 0
BBX 17 32 1 0
BITMAP
3C1F00
1E1E00
1F3C00
0FFC00
07F800
03F000
03E000
000000
000000
7FFF80
7FFF80
7FFF80
7FFF80
001F80
001F00
003E00
007C00
00FC00
00F800
01F000
03E000
03E000
07C000
0F8000
1F0000
1F0000
3E0000
7C0000
FFFF80
FFFF80
FFFF80
FFFF80
ENDCHAR
STARTCHAR 0192
ENCODING 402
SWIDTH 472 0
DWIDTH 21 0
BBX 19 40 0 -8
BITMAP
0003E0
000FE0
001FE0
003FE0
003F20
003E00
003C00
003C00
007C00
007C00
007C00
007800
07FF80
07FF80
0FFF80
00F800
00F000
00F000
00F000
01F000
01F000
01F000
01E000
01E000
01E000
03E000
03E000
03E000
03C000
03C000
03C000
07C000
07C000
07C000
078000
0F8000
7F8000
FF0000
FF0000
FC0000
ENDCHAR
STARTCHAR 02C6
ENCODING 710
SWIDTH 247 0
DWIDTH 11 0
BBX 15 7 -2 25
BITMAP
0FC0
0FE0
1FF0
3EF0
3C78
783C
F03E
ENDCHAR
STARTCHAR 02C7
ENCODING 711
SWIDTH 247 0
DWIDTH 11 0
BBX 14 7 -2 25
BITMAP
F83C
7C78
3CF8
1EF0
1FE0
0FE0
07C0
ENDCHAR
STARTCHAR 02C9
ENCODING 713
SWIDTH 247 0
DWIDTH 11 0
BBX 13 3 -1 27
BITMAP
FFF8
FFF8
FFF8
ENDCHAR
STARTCHAR 02D8
ENCODING 728
SWIDTH 247 0
DWIDTH 11 0
BBX 15 6 -2 26
BITMAP
E00E
701C
783C
3FF8
1FF0
07E0
ENDCHAR
STARTCHAR 02D9
ENCODING 729
SWIDTH 247 0
DWIDTH 11 0
BBX 5 5 3 26
BITMAP
F8
F8
F8
F8
F8
ENDCHAR
STARTCHAR 02DA
ENCODING 730
SWIDTH 247 0
DWIDTH 11 0
BBX 9 9 1 25
BITMAP
3C00
7F00
C300
C180
C180
C180
C300
7F00
3C00
ENDCHAR
STARTCHAR 02DB
ENCODING 731
SWIDTH 247 0
DWIDTH 11 0
BBX 8 10 1 -10
BITMAP
1C
38
70
F0
F0
E0
F0
F9
7F
3E
ENDCHAR
STARTCHAR 02DC
ENCODING 732
SWIDTH 247 0
DWIDTH 11 0
BBX 16 5 -3 26
BITMAP
1F07
3FC7
7FFE
73FE
E078
ENDCHAR
STARTCHAR 02DD
ENCODING 733
SWIDTH 247 0
DWIDTH 11 0
BBX 19 7 -3 25
BITMAP
0FC7E0
0F8FC0
1F0F80
3E1F00
3C1E00
783C00
F07800
ENDCHAR
STARTCHAR 03A9
ENCODING 937
SWIDTH 607 0
DWIDTH 27 0
BBX 23 32 2 0
BITMAP
007C00
03FF80
07FFC0
0FFFE0
1F83F0
3F01F0
3E00F8
7C0078
7C007C
78007C
F8003C
F8003C
F8003E
F8003E
F8003E
F0003E
F0003E
F8003E
F8003C
78003C
78003C
78003C
780078
3C0078
3C0070
1C00F0
0E00E0
0F01C0
FF03FE
FF83FE
FF83FE
FF83FE
ENDCHAR
STARTCHAR 03BC
ENCODING 956
SWIDTH 540 0
DWIDTH 24 0
BBX 18 32 3 -9
BITMAP
F007C0
F007C0
F007C0
F007C0
F007C0
F007C0
F007C0
F007C0
F007C0
F007C0
F007C0
F007C0
F007C0
F007C0
F007C0
F807C0
F807C0
FC0FC0
FFFFC0
FFFFC0
FFFFC0
FFF7C0
F7C7C0
F00000
F00000
F00000
F00000
F00000
F00000
F00000
F00000
F00000
ENDCHAR
STARTCHAR 03C0
ENCODING 960
SWIDTH 517 0
DWIDTH 23 0
BBX 22 23 0 0
BITMAP
3FFFFC
FFFFFC
FFFFFC
7FFFFC
0781E0
0781E0
0781E0
0F81E0
0F81E0
0F81E0
0F01E0
0F01E0
0F01E0
0F01E0
0F01E0
0F01E0
1F01E0
1F01E0
1E01E0
1E01E0
1E01E0
3E01E0
3C01E0
ENDCHAR
STARTCHAR 2010
ENCODING 8208
SWIDTH 405 0
DWIDTH 18 0
BBX 14 5 2 10
BITMAP
FFFC
FFFC
FFFC
FFFC
FFFC
ENDCHAR
STARTCHAR 2013
ENCODING 8211
SWIDTH 495 0
DWIDTH 22 0
BBX 22 4 0 10
BITMAP
FFFFFC
FFFFFC
FFFFFC
FFFFFC
ENDCHAR
STARTCHAR 2014
ENCODING 8212
SWIDTH 990 0
DWIDTH 44 0
BBX 44 4 0 10
BITMAP
FFFFFFFFFFF0
FFFFFFFFFFF0
FFFFFFFFFFF0
FFFFFFFFFFF0
ENDCHAR
STARTCHAR 2018
ENCODING 8216
SWIDTH 247 0
DWIDTH 11 0
BBX 5 8 3 24
BITMAP
08
18
78
F8
F8
F8
F8
F8
ENDCHAR
STARTCHAR 2019
ENCODING 8217
SWIDTH 247 0
DWIDTH 11 0
BBX 5 8 3 24
BITMAP
F8
F8
F8
F8
F8
E0
C0
80
ENDCHAR
STARTCHAR 201A
ENCODING 8218
SWIDTH 247 0
DWIDTH 11 0
BBX 5 8 3 -3
BITMAP
F8
F8
F8
F8
F8
F0
E0
80
ENDCHAR
STARTCHAR 201C
ENCODING 8220
SWIDTH 337 0
DWIDTH 15 0
BBX 11 8 2 24
BITMAP
1020
3060
70E0
F1E0
F1E0
F1E0
F1E0
F1E0
ENDCHAR
STARTCHAR 201D
ENCODING 8221
SWIDTH 337 0
DWIDTH 15 0
BBX 11 7 2 24
BITMAP
F1E0
F1E0
F1E0
F1E0
F1E0
E1C0
C100
ENDCHAR
STARTCHAR 201E
ENCODING 8222
SWIDTH 337 0
DWIDTH 15 0
BBX 11 8 2 -3
BITMAP
F1E0
F1E0
F1E0
F1E0
F1E0
F1C0
C180
8100
ENDCHAR
STARTCHAR 2020
ENCODING 8224
SWIDTH 472 0
DWIDTH 21 0
BBX 19 40 1 -8
BITMAP
00F000
00F000
00F000
00F000
00F000
00F000
00F000
00F000
00F000
00F000
00F000
FFFFE0
FFFFE0
FFFFE0
00F000
00F000
00F000
00F000
00F000
00F000
00F000
00F000
00F000
00F000
00F000
00F000
00F000
00F000
00F000
00F000
00F000
00F000
00F000
00F000
00F000
00F000
00F000
00F000
00F000
00F000
ENDCHAR
STARTCHAR 2021
ENCODING 8225
SWIDTH 472 0
DWIDTH 21 0
BBX 19 40 1 -8
BITMAP
00F000
00F000
00F000
00F000
00F000
00F000
00F000
00F000
00F000
00F000
FFFFE0
FFFFE0
FFFFE0
00F000
00F000
00F000
00F000
00F000
00F000
00F000
00F000
00F000
00F000
00F000
00F000
00F000
00F000
FFFFE0
FFFFE0
FFFFE0
00F000
00F000
00F000
00F000
00F000
00F000
00F000
00F000
00F000
00F000
ENDCHAR
STARTCHAR 2022
ENCODING 8226
SWIDTH 495 0
DWIDTH 22 0
BBX 16 16 3 8
BITMAP
03C0
0FF0
3FFC
3FFC
7FFE
7FFF
FFFF
FFFF
FFFF
FFFF
7FFF
7FFE
7FFE
3FFC
1FF8
07E0
ENDCHAR
STARTCHAR 2026
ENCODING 8230
SWIDTH 990 0
DWIDTH 44 0
BBX 34 5 5 0
BITMAP
F801E003C0
F801E003C0
F801E003C0
F801E003C0
F801E003C0
ENDCHAR
STARTCHAR 2030
ENCODING 8240
SWIDTH 765 0
DWIDTH 34 0
BBX 30 32 2 0
BITMAP
3C01C000
7F01C000
FF038000
E3038000
E3870000
E3870000
E38E0000
E38E0000
E31C0000
7F1C0000
7E180000
18380000
00380000
00700000
00700000
00E00000
00E00000
01C00000
01C00000
03800000
038F81E0
071FC3F8
071FC7F8
0E38E718
0E38E71C
0C38E71C
1C38E71C
1C38E71C
3838E718
381FC3F8
701FC3F8
700F81F0
ENDCHAR
STARTCHAR 2039
ENCODING 8249
SWIDTH 292 0
DWIDTH 13 0
BBX 8 17 3 3
BITMAP
01
01
03
07
0F
1E
3C
78
F0
F0
78
3C
1E
0F
07
03
01
ENDCHAR
STARTCHAR 203A
ENCODING 8250
SWIDTH 292 0
DWIDTH 13 0
BBX 9 18 2 3
BITMAP
8000
C000
E000
F000
F800
7C00
3E00
1F00
0F80
0F80
1F00
3E00
7C00
F800
F000
E000
C000
8000
ENDCHAR
STARTCHAR 2044
ENCODING 8260
SWIDTH 157 0
DWIDTH 7 0
BBX 21 33 -7 -1
BITMAP
000038
000038
000070
000070
0000E0
0000C0
0001C0
000380
000380
000700
000700
000E00
001C00
001C00
003800
003800
007000
007000
00E000
01C000
01C000
038000
038000
070000
070000
0E0000
1C0000
1C0000
380000
380000
700000
600000
E00000
ENDCHAR
STARTCHAR 20AC
ENCODING 8364
SWIDTH 472 0
DWIDTH 21 0
BBX 19 32 1 0
BITMAP
007F00
01FFE0
03FFE0
07FFE0
07E0E0
0FC020
0F8000
0F0000
1F0000
1F0000
1F0000
7FFF80
FFFF80
FFFF00
1E0000
1E0000
1E0000
7FFE00
7FFE00
FFFE00
FFFC00
1F0000
1F0000
1F0000
0F0000
0F8000
0FC020
07E0E0
07FFE0
03FFE0
00FFE0
003F80
ENDCHAR
STARTCHAR 2113
ENCODING 8467
SWIDTH 450 0
DWIDTH 20 0
BBX 18 34 1 0
BITMAP
01F000
03FC00
07FC00
0F9C00
0F0E00
0F0E00
1F0E00
1F0E00
1E0E00
1E0E00
1E0E00
1E1C00
1E1C00
1E3C00
1E3800
1E7800
1E7000
1EE000
1FE000
1FC000
1F8000
1F0000
1E0000
3E0000
7E0000
FE0000
5E0000
1F0180
1F01C0
0F8380
0FFF80
07FF00
03FE00
01F800
ENDCHAR
STARTCHAR 2122
ENCODING 8482
SWIDTH 990 0
DWIDTH 44 0
BBX 39 19 2 13
BITMAP
FFFC3E007E
FFFC3F007E
FFFC3F00FE
07803F00FE
07803F80FE
07803B81DE
07803B81DE
078039C3DE
078039C39E
078039C39E
078038E71E
078038E71E
078038771E
0780387E1E
0780387E1E
0780383C1E
0780383C1E
0780383C1E
078038181E
ENDCHAR
STARTCHAR 2126
ENCODING 8486
SWIDTH 607 0
DWIDTH 27 0
BBX 23 32 2 0
BITMAP
007C00
03FF80
07FFC0
0FFFE0
1F83F0
3F01F0
3E00F8
7C0078
7C007C
78007C
F8003C
F8003C
F8003E
F8003E
F8003E
F0003E
F0003E
F8003E
F8003C
78003C
78003C
78003C
780078
3C0078
3C0070
1C00F0
0E00E0
0F01C0
FF03FE
FF83FE
FF83FE
FF83FE
ENDCHAR
STARTCHAR 212E
ENCODING 8494
SWIDTH 877 0
DWIDTH 39 0
BBX 36 32 1 0
BITMAP
0003FE0000
001E03C000
0070007000
01C0001800
0380000E00
0700000700
0E00000380
1E00000380
1E000003C0
3E000003E0
3E000003E0
7E000003E0
7E000003F0
7E000003F0
7E000003F0
7E000003F0
FFFFFFFFF0
7E00000000
7E00000000
7E00000000
7E00000000
7E00000000
3E00000000
3E00000000
1E00000000
0E00000000
0600000700
0300000E00
01C0001C00
0070007000
001C01C000
0003FE0000
ENDCHAR
STARTCHAR 2202
ENCODING 8706
SWIDTH 495 0
DWIDTH 22 0
BBX 18 35 2 0
BITMAP
0FE000
3FF000
7FFC00
7FFE00
303E00
001F00
000F00
000F80
000780
000780
0007C0
0003C0
0003C0
07E3C0
0FF3C0
1FFBC0
3FFFC0
7E1FC0
7C0FC0
F807C0
F807C0
F007C0
F007C0
F00780
F00780
F00F80
F00F80
F00F00
F01F00
F81F00
7C3E00
7FFC00
3FF800
1FF000
07C000
ENDCHAR
STARTCHAR 2206
ENCODING 8710
SWIDTH 562 0
DWIDTH 25 0
BBX 23 32 1 0
BITMAP
007C00
007E00
00FE00
00FE00
00FF00
00FF00
01EF00
01EF80
01EF80
03C780
03C780
03C7C0
07C3C0
0783C0
0783E0
0F83E0
0F01E0
0F01F0
1F01F0
1E00F0
1E00F0
1E00F8
3C0078
3C0078
3C007C
78003C
78003C
78003E
FFFFFE
FFFFFE
FFFFFE
FFFFFE
ENDCHAR
STARTCHAR 220F
ENCODING 8719
SWIDTH 630 0
DWIDTH 28 0
BBX 26 35 1 -4
BITMAP
FFFFFFC0
FFFFFFC0
FFFFFFC0
FFFFFFC0
0F003C00
0F003C00
0F003C00
0F003C00
0F003C00
0F003C00
0F003C00
0F003C00
0F003C00
0F003C00
0F003C00
0F003C00
0F003C00
0F003C00
0F003C00
0F003C00
0F003C00
0F003C00
0F003C00
0F003C00
0F003C00
0F003C00
0F003C00
0F003C00
0F003C00
0F003C00
0F003C00
0F003C00
0F003C00
0F003C00
0F003C00
ENDCHAR
STARTCHAR 2211
ENCODING 8721
SWIDTH 495 0
DWIDTH 22 0
BBX 20 35 1 -4
BITMAP
FFFFE0
FFFFE0
FFFFE0
7FFFE0
7C0000
3E0000
3F0000
1F0000
0F8000
0FC000
07C000
03E000
03F000
01F000
00F800
00FC00
007C00
003C00
007800
007800
00F000
01E000
03E000
03C000
078000
0F8000
0F0000
1E0000
3E0000
3C0000
780000
FFFFF0
FFFFF0
FFFFF0
FFFFF0
ENDCHAR
STARTCHAR 2212
ENCODING 8722
SWIDTH 607 0
DWIDTH 27 0
BBX 23 3 2 10
BITMAP
FFFFFE
FFFFFE
FFFFFE
ENDCHAR
STARTCHAR 2215
ENCODING 8725
SWIDTH 157 0
DWIDTH 7 0
BBX 21 33 -7 -1
BITMAP
000038
000038
000070
000070
0000E0
0000C0
0001C0
000380
000380
000700
000700
000E00
001C00
001C00
003800
003800
007000
007000
00E000
01C000
01C000
038000
038000
070000
070000
0E0000
1C0000
1C0000
380000
380000
700000
600000
E00000
ENDCHAR
STARTCHAR 2219
ENCODING 8729
SWIDTH 247 0
DWIDTH 11 0
BBX 6 6 2 10
BITMAP
38
7C
FC
FC
7C
38
ENDCHAR
STARTCHAR 221A
ENCODING 8730
SWIDTH 517 0
DWIDTH 23 0
BBX 22 44 1 -7
BITMAP
00001C
00001C
00001C
000038
000038
000038
000038
000038
000070
000070
000070
000070
000070
0000E0
0000E0
0000E0
0000E0
0000E0
0001C0
0001C0
0E01C0
3E01C0
FF01C0
7F0380
4F0380
070380
078380
078380
078700
03C700
03C700
03C700
01C700
01EE00
01EE00
00EE00
00EE00
00FE00
00FC00
007C00
007C00
007C00
003C00
003800
ENDCHAR
STARTCHAR 221E
ENCODING 8734
SWIDTH 720 0
DWIDTH 32 0
BBX 28 14 2 5
BITMAP
0F801F00
3FE07FC0
7FF0FFE0
7079E0E0
E01FC070
E01F8070
E00F0070
E00F0070
E01F8070
E03FC0E0
7879E1E0
3FE0FFC0
1FC03F80
02000400
ENDCHAR
STARTCHAR 222B
ENCODING 8747
SWIDTH 360 0
DWIDTH 16 0
BBX 14 45 1 -8
BITMAP
00FC
01F8
03F8
03C0
07C0
0780
0780
0780
0780
0780
0780
0780
0780
0780
0780
0780
0780
0780
0780
0780
0780
0780
0780
0780
0780
0780
0780
0780
0780
0780
0780
0780
0780
0780
0780
0780
0780
0780
0780
0780
0F00
0F00
FF00
FE00
FC00
ENDCHAR
STARTCHAR 2248
ENCODING 8776
SWIDTH 495 0
DWIDTH 22 0
BBX 18 14 2 6
BITMAP
0C0000
3F80C0
7FC1C0
E1F380
C0FF80
C03F00
000C00
000000
1E0080
7F80C0
7FE1C0
E0FF80
C07F00
001E00
ENDCHAR
STARTCHAR 2260
ENCODING 8800
SWIDTH 495 0
DWIDTH 22 0
BBX 18 20 2 3
BITMAP
000800
001C00
001800
003800
FFFFC0
FFFFC0
FFFFC0
006000
00E000
00C000
01C000
018000
018000
FFFFC0
FFFFC0
FFFFC0
070000
060000
0E0000
0C0000
ENDCHAR
STARTCHAR 2264
ENCODING 8804
SWIDTH 495 0
DWIDTH 22 0
BBX 18 26 2 0
BITMAP
000040
0001C0
0007C0
001F80
007E00
01F800
07E000
0F8000
3E0000
F80000
E00000
F00000
7C0000
1F0000
0FC000
03F000
00FC00
003F00
000FC0
0003C0
0000C0
000000
000000
FFFFC0
FFFFC0
FFFFC0
ENDCHAR
STARTCHAR 2265
ENCODING 8805
SWIDTH 495 0
DWIDTH 22 0
BBX 18 26 2 0
BITMAP
800000
E00000
F80000
7E0000
1F8000
07E000
01F800
007C00
001F00
0007C0
0001C0
0003C0
000F80
003E00
00FC00
03F000
0FC000
3F0000
FC0000
F00000
C00000
000000
000000
FFFFC0
FFFFC0
FFFFC0
ENDCHAR
STARTCHAR 25CA
ENCODING 9674
SWIDTH 517 0
DWIDTH 23 0
BBX 19 35 2 -2
BITMAP
00F000
01F000
01F800
03F800
03B800
07BC00
07BC00
071E00
0F1E00
0E0F00
1E0F00
1E0700
3C0780
3C0780
7803C0
7803C0
7001E0
F001E0
F001E0
7803C0
7803C0
3C0780
3C0780
1E0700
1E0F00
0E0E00
0F1E00
0F1E00
07BC00
07BC00
03B800
03F800
01F000
01F000
01E000
ENDCHAR
STARTCHAR E000
ENCODING 57344
SWIDTH 472 0
DWIDTH 21 0
BBX 18 32 2 0
BITMAP
07F000
1FFC00
3FFE00
7FFF00
7FFF00
FC0F80
F80F80
F80780
F007C0
F007C0
F007C0
F007C0
F007C0
F007C0
F807C0
F80FC0
FC1FC0
7FFFC0
7FFFC0
3FFFC0
0FF7C0
0007C0
0007C0
0007C0
0007C0
F80F80
FC0F80
7FFF80
7FFF00
3FFE00
1FFC00
07F000
ENDCHAR
STARTCHAR E001
ENCODING 57345
SWIDTH 472 0
DWIDTH 21 0
BBX 18 32 2 0
BITMAP
07F000
1FFC00
3FFE00
7FFF00
7FFF80
FC0F80
F80F80
F00000
F00000
F00000
F00000
F3F800
FFFE00
FFFF00
FFFF00
FE1F80
F80F80
F807C0
F007C0
F007C0
F007C0
F007C0
F007C0
F007C0
F007C0
F80F80
FC1F80
7FFF80
7FFF00
3FFE00
0FFC00
07F000
ENDCHAR
STARTCHAR FB01
ENCODING 64257
SWIDTH 517 0
DWIDTH 23 0
BBX 19 32 1 0
BITMAP
03F3E0
0FF3E0
0FF3E0
1FF3E0
1F03E0
1E0000
1E0000
1E0000
1E0000
FFF3E0
FFF3E0
FFF3E0
1E03E0
1E03E0
1E03E0
1E03E0
1E03E0
1E03E0
1E03E0
1E03E0
1E03E0
1E03E0
1E03E0
1E03E0
1E03E0
1E03E0
1E03E0
1E03E0
1E03E0
1E03E0
1E03E0
1E03E0
ENDCHAR
STARTCHAR FB02
ENCODING 64258
SWIDTH 540 0
DWIDTH 24 0
BBX 22 32 1 0
BITMAP
03F3E0
0FF3E0
0FF3E0
1FF3E0
1F03E0
1E03E0
1E03E0
1E03E0
1E03E0
FFF3E0
FFF3E0
FFF3E0
1E03E0
1E03E0
1E03E0
1E03E0
1E03E0
1E03E0
1E03E0
1E03E0
1E03E0
1E03E0
1E03E0
1E03E0
1E03E0
1E03E0
1E03E0
1E03F0
1E01FC
1E01FC
1E00FC
1E007C
ENDCHAR
ENDFONT
